<?xml version="1.0" encoding="UTF-8" standalone="no"?>
<!DOCTYPE svg  PUBLIC '-//W3C//DTD SVG 1.1//EN'  'http://www.w3.org/Graphics/SVG/1.1/DTD/svg11.dtd'>
<svg xmlns="http://www.w3.org/2000/svg">
<defs>
<font id="NeutraTextTF-BoldSC" horiz-adv-x="500">
<font-face underline-position="-123" font-weight="700" descent="-200" panose-1="2 0 0 0 0 0 0 0 0 0" units-per-em="1000" unicode-range="U+0020-25CA" bbox="-60 -240 1079 964" x-height="522" underline-thickness="20" font-family="NeutraTextTF" ascent="800" cap-height="680"/>
<missing-glyph horiz-adv-x="1000"/>
<glyph glyph-name=".notdef" horiz-adv-x="1000"/>
<glyph glyph-name=".notdef" horiz-adv-x="1000"/>
<glyph glyph-name=".null" horiz-adv-x="0"/>
<glyph glyph-name="nonmarkingreturn" horiz-adv-x="333"/>
<glyph glyph-name="space" horiz-adv-x="200" unicode=" "/>
<glyph glyph-name="exclam" horiz-adv-x="283" unicode="!" d="M142 -6q-35 0 -60 24t-25 61q0 36 25 60t60 24q34 0 59 -24t25 -60q0 -37 -24.5 -61t-59.5 -24zM88 231l-22 449h151l-22 -449h-107z"/>
<glyph glyph-name="quotedbl" horiz-adv-x="408" unicode='&quot;' d="M51 433l-15 247h144l-15 -247h-114zM243 433l-16 247h145l-15 -247h-114z"/>
<glyph glyph-name="numbersign" d="M295 420h-70l-19 -75h70zM123 420h-55v102h81l24 97h102l-24 -97h70l24 97h102l-24 -97h53v-102h-78l-19 -75h53v-102h-79l-25 -101h-102l25 101h-71l-25 -101h-102l25 101h-54v102h80z" unicode="#"/>
<glyph glyph-name="dollar" d="M285 97q47 8 47 44t-47 53v-97zM218 429q-43 -7 -43 -38q0 -18 9.5 -29t33.5 -20v87zM218 -7q-132 11 -192 122l99 56q19 -33 39 -50.5t54 -23.5v117q-90 28 -127.5 67.5t-37.5 100.5t42 101.5t123 46.5v101h67v-103q88 -13 144 -88l-87 -66q-26 38 -57 49v-100 q172 -53 172 -175q0 -145 -172 -156v-108h-67v109z" unicode="$"/>
<glyph glyph-name="percent" horiz-adv-x="750" unicode="%" d="M591 88q40 0 40 60t-40 60t-40 -60t40 -60zM160 314q40 0 40 60t-40 60t-40 -60t40 -60zM591 -9q-63 0 -104.5 44t-41.5 113q0 68 41.5 112.5t104.5 44.5q62 0 103.5 -44.5t41.5 -112.5t-41.5 -112.5t-103.5 -44.5zM143 0l330 522h133l-330 -522h-133zM160 217 q-63 0 -104.5 44t-41.5 113q0 68 41.5 112.5t104.5 44.5q62 0 103.5 -44.5t41.5 -112.5t-41.5 -112.5t-103.5 -44.5z"/>
<glyph glyph-name="ampersand" horiz-adv-x="594" unicode="&amp;" d="M321 109l-104 125q-43 -23 -43 -69q0 -30 24.5 -48.5t62.5 -18.5q30 0 60 11zM275 349q45 23 45 53q0 14 -9.5 23.5t-25.5 9.5t-26.5 -10t-10.5 -24q0 -21 26 -51zM331 281l77 -93q20 36 21 87h116q-1 -103 -61 -179l80 -96h-152l-19 23q-61 -32 -133 -32q-104 0 -162 45 t-58 119q0 51 28.5 83.5t94.5 62.5q-33 50 -33 103q0 55 42 91t113 36q66 0 106.5 -34t40.5 -91q0 -75 -101 -125z"/>
<glyph glyph-name="quotesingle" horiz-adv-x="216" unicode="&apos;" d="M51 433l-15 247h144l-15 -247h-114z"/>
<glyph glyph-name="parenleft" horiz-adv-x="300" unicode="(" d="M196 -66q-78 81 -123.5 174t-45.5 228t45.5 228.5t123.5 173.5l83 -63q-58 -76 -84 -154t-26 -185q0 -106 26 -184.5t84 -154.5z"/>
<glyph glyph-name="parenright" horiz-adv-x="300" unicode=")" d="M104 -66l-83 63q58 76 84 154.5t26 184.5q0 107 -26 185t-84 154l83 63q78 -80 123.5 -173.5t45.5 -228.5t-45.5 -228t-123.5 -174z"/>
<glyph glyph-name="asterisk" horiz-adv-x="425" unicode="*" d="M153 360l29 111l-82 -82l-58 100l113 31l-113 31l58 100l82 -82l-29 111h118l-29 -111l82 82l59 -100l-116 -31l116 -31l-59 -100l-82 82l29 -111h-118z"/>
<glyph glyph-name="plus" d="M310 207v-130h-121v130h-126v118h126v130h121v-130h126v-118h-126z" unicode="+"/>
<glyph glyph-name="comma" horiz-adv-x="200" unicode="," d="M29 -115l38 120q-48 22 -48 72q0 33 24 55.5t57 22.5t56.5 -22.5t23.5 -57.5q0 -27 -29 -81l-58 -109h-64z"/>
<glyph glyph-name="hyphen" horiz-adv-x="302" unicode="-" d="M36 182v120h230v-120h-230z"/>
<glyph glyph-name="hyphen" horiz-adv-x="302" unicode="­" d="M36 182v120h230v-120h-230z"/>
<glyph glyph-name="period" horiz-adv-x="200" unicode="." d="M100 -6q-34 0 -57.5 23t-23.5 58t23.5 57.5t57.5 22.5q33 0 56.5 -22.5t23.5 -57.5t-23.5 -58t-56.5 -23z"/>
<glyph glyph-name="slash" horiz-adv-x="404" unicode="/" d="M-16 -128l279 850h132l-279 -850h-132z"/>
<glyph glyph-name="zero" d="M250 111q81 0 81 151q0 149 -81 149t-81 -149q0 -151 81 -151zM250 -9q-100 0 -162 74.5t-62 196.5q0 123 62 196t162 73q101 0 162.5 -73t61.5 -196q0 -122 -62 -196.5t-162 -74.5z" unicode="0"/>
<glyph glyph-name="one" d="M191 112v298h-108v112h245v-410h107v-112h-360v112h116z" unicode="1"/>
<glyph glyph-name="two" d="M22 0v11l210 220q68 71 68 122q0 25 -14.5 40t-42.5 15q-53 0 -83 -75l-123 34q20 77 75 120.5t136 43.5q87 0 139 -47.5t52 -124.5q0 -81 -90 -176l-32 -34q-7 -8 -19 -17t-20 -14l-8 -6q32 4 57 4h112v-116h-417z" unicode="2"/>
<glyph glyph-name="three" d="M244 -9q-161 0 -217 132l116 54q14 -31 35.5 -48t60.5 -17q36 0 56.5 19.5t20.5 50.5q0 32 -22.5 53t-63.5 21q-42 0 -74 -13l-6 9l72 107q7 10 19 23t21 21l8 8q-50 -7 -76 -7h-118v118h380v-11l-84 -123q-9 -13 -20.5 -24t-18.5 -16l-7 -5q59 -15 94.5 -58.5 t35.5 -111.5q0 -88 -60.5 -135t-151.5 -47z" unicode="3"/>
<glyph glyph-name="four" d="M277 166v59l5 63q-25 -32 -42 -48l-46 -43q-9 -8 -21 -17t-20 -14l-8 -5q33 5 60 5h72zM401 172h64v-107h-64v-65h-130v65h-244v105l363 357h11v-355z" unicode="4"/>
<glyph glyph-name="five" d="M246 -9q-78 0 -133.5 35t-81.5 84l113 62q33 -60 95 -60q33 0 54.5 18t21.5 47q0 33 -25 51t-72 18q-66 0 -131 -37l-8 4v309h329v-117h-214v-61q21 9 57 9q95 0 149 -49t54 -130q0 -83 -57 -133t-151 -50z" unicode="5"/>
<glyph glyph-name="six" d="M248 110q38 0 57 22t19 53q0 33 -18.5 54t-57.5 21q-36 0 -56.5 -21.5t-20.5 -53.5q0 -30 21 -52.5t56 -22.5zM249 -9q-93 0 -153 56t-60 137q0 66 55 148l129 190h153l-74 -107q-9 -13 -23.5 -28t-23.5 -23l-10 -8q17 5 36 5q78 0 131.5 -49.5t53.5 -128.5 q0 -81 -60 -136.5t-154 -55.5z" unicode="6"/>
<glyph glyph-name="seven" d="M79 0l192 404h-230v118h427v-11l-241 -511h-148z" unicode="7"/>
<glyph glyph-name="eight" d="M250 107q31 0 50 20t19 50t-19 50t-50 20t-50 -20t-19 -50t19 -50t50 -20zM250 345q18 0 30 10.5t12 28.5t-12 28.5t-30 10.5t-30 -10.5t-12 -28.5t12 -28.5t30 -10.5zM140 306q-56 33 -56 94q0 57 49 94t117 37t116.5 -37t48.5 -94q0 -61 -55 -94q99 -41 99 -136 q0 -78 -57.5 -128.5t-151.5 -50.5t-151 50.5t-57 128.5q0 95 98 136z" unicode="8"/>
<glyph glyph-name="nine" d="M252 262q36 0 56.5 21.5t20.5 53.5q0 30 -21 52.5t-56 22.5q-38 0 -58 -22t-20 -53q0 -32 19.5 -53.5t58.5 -21.5zM114 0l83 107q10 14 24.5 29t24.5 22l9 8q-15 -5 -33 -5q-79 0 -133 49.5t-54 128.5q0 80 61 136t155 56q93 0 153 -56t60 -137q0 -75 -60 -154l-139 -184 h-151z" unicode="9"/>
<glyph glyph-name="colon" horiz-adv-x="200" unicode=":" d="M100 -6q-34 0 -57.5 23t-23.5 58t23.5 57.5t57.5 22.5q33 0 56.5 -22.5t23.5 -57.5t-23.5 -58t-56.5 -23zM100 228q-34 0 -57.5 23t-23.5 58q0 34 24 57t57 23t56.5 -23t23.5 -57q0 -35 -23.5 -58t-56.5 -23z"/>
<glyph glyph-name="less" d="M407 52l-348 187v10l348 185v-117l-147 -74l147 -74v-117z" unicode="&lt;"/>
<glyph glyph-name="equal" d="M60 115v115h380v-115h-380zM60 279v115h380v-115h-380z" unicode="="/>
<glyph glyph-name="greater" d="M93 52v117l147 74l-147 74v117l348 -187v-10z" unicode="&gt;"/>
<glyph glyph-name="question" horiz-adv-x="513" unicode="?" d="M236 -6q-35 0 -60 24t-25 61q0 36 25 60t60 24q34 0 59 -24t25 -60q0 -37 -24.5 -61t-59.5 -24zM174 231v159h46q58 0 85 27t27 68q0 33 -23.5 58.5t-60.5 25.5q-39 0 -62.5 -16t-43.5 -49l-108 63q56 122 214 122q102 0 162 -60t60 -144q0 -81 -44 -132t-126 -63v-59 h-126z"/>
<glyph glyph-name="at" horiz-adv-x="925" unicode="@" d="M464 100q30 0 49.5 26t19.5 64t-19.5 64t-49.5 26q-34 0 -54.5 -24.5t-20.5 -65.5t20.5 -65.5t54.5 -24.5zM477 -207q-192 0 -315 109t-123 295q0 120 60.5 215t159 145.5t212.5 50.5q186 0 300.5 -102t114.5 -270q0 -117 -48 -179t-137 -62q-107 0 -139 77 q-41 -81 -136 -81q-75 0 -125 56t-50 143t50 144t123 57q75 0 108 -60l-2 50h130v-225q0 -33 10.5 -48t35.5 -15q66 0 66 141q0 138 -79 205t-222 67q-138 0 -223.5 -84.5t-85.5 -223.5q0 -141 81.5 -222t231.5 -81q80 0 159 28l42 -94q-91 -36 -199 -36z"/>
<glyph glyph-name="A" horiz-adv-x="664" unicode="A" d="M235 194h179l-49 118q-9 21 -19 51.5t-16 50.5l-6 20q-20 -74 -40 -122zM21 0l299 686h12l311 -686h-147l-32 77h-276l-32 -77h-135z"/>
<glyph glyph-name="B" horiz-adv-x="610" unicode="B" d="M211 123h129q42 0 67.5 26t25.5 68t-27 67.5t-74 25.5h-121v-187zM211 429h108q34 0 54.5 17.5t20.5 46.5q0 30 -18 47t-50 17h-115v-128zM71 0v680h263q92 0 145 -50.5t53 -125.5q0 -94 -96 -125q138 -33 138 -169q0 -93 -61.5 -151.5t-166.5 -58.5h-275z"/>
<glyph glyph-name="C" horiz-adv-x="715" unicode="C" d="M398 -9q-147 0 -248.5 99.5t-101.5 249.5t101 249t249 99q183 0 272 -139l-107 -76q-55 89 -165 89q-91 0 -148.5 -63t-57.5 -159t57.5 -160t148.5 -64q62 0 102.5 26t72.5 74l109 -75q-96 -150 -284 -150z"/>
<glyph glyph-name="D" horiz-adv-x="685" unicode="D" d="M211 123h62q109 0 164.5 59t55.5 158t-55.5 158t-164.5 59h-62v-434zM71 0v680h209q157 0 257.5 -95t100.5 -245t-100 -245t-258 -95h-209z"/>
<glyph glyph-name="E" horiz-adv-x="594" unicode="E" d="M71 0v680h450v-123h-310v-216h273v-120h-273v-98h324v-123h-464z"/>
<glyph glyph-name="F" horiz-adv-x="556" unicode="F" d="M71 0v680h438v-123h-298v-225h271v-125h-271v-207h-140z"/>
<glyph glyph-name="G" horiz-adv-x="739" unicode="G" d="M417 -9q-165 0 -267 98.5t-102 250.5t97 250t250 98q165 0 247 -94l-95 -94q-29 30 -63 46t-89 16q-91 0 -147 -62.5t-56 -159.5q0 -98 60 -161t165 -63q82 0 133 25v100h-164v123h292v-294q-36 -30 -106.5 -54.5t-154.5 -24.5z"/>
<glyph glyph-name="H" horiz-adv-x="713" unicode="H" d="M71 0v680h140v-348h291v348h140v-680h-140v207h-291v-207h-140z"/>
<glyph glyph-name="I" horiz-adv-x="287" unicode="I" d="M74 0v680h140v-680h-140z"/>
<glyph glyph-name="J" horiz-adv-x="496" unicode="J" d="M223 -9q-150 0 -210 128l114 69q14 -25 23 -37.5t26.5 -23.5t40.5 -11q37 0 56 19t19 69v476h140v-478q0 -105 -56 -158t-153 -53z"/>
<glyph glyph-name="K" horiz-adv-x="649" unicode="K" d="M202 331q31 70 58 106l180 243h159l-228 -308l256 -372h-169l-181 267l-66 -79v-188h-140v680h140v-235q0 -37 -9 -114z"/>
<glyph glyph-name="L" horiz-adv-x="561" unicode="L" d="M71 0v680h140v-557h308v-123h-448z"/>
<glyph glyph-name="M" horiz-adv-x="830" unicode="M" d="M71 0v687h11l335 -368l330 368h12v-687h-135v255l5 119q-41 -60 -73 -96l-135 -151h-13l-135 151q-14 16 -32.5 40t-29.5 40l-11 16q5 -73 5 -119v-255h-134z"/>
<glyph glyph-name="N" horiz-adv-x="701" unicode="N" d="M616 -6l-343 322q-15 14 -35.5 37.5t-33.5 39.5l-12 16q10 -75 10 -124v-285h-131v686h14l343 -322q15 -14 35 -37t33 -39l12 -17q-9 77 -9 124v285h131v-686h-14z"/>
<glyph glyph-name="O" horiz-adv-x="800" unicode="O" d="M400 116q92 0 150 64t58 160t-58 160t-150 64t-150 -64t-58 -160t58 -160t150 -64zM400 -9q-148 0 -250 99.5t-102 249.5t102 249.5t250 99.5t250 -99.5t102 -249.5t-102 -249.5t-250 -99.5z"/>
<glyph glyph-name="P" horiz-adv-x="601" unicode="P" d="M211 278h44q85 0 124.5 34.5t39.5 104.5q0 140 -164 140h-44v-279zM71 0v680h188q142 0 223 -70t81 -193t-81 -192.5t-223 -69.5h-48v-155h-140z"/>
<glyph glyph-name="Q" horiz-adv-x="800" unicode="Q" d="M469 126l-81 93l94 77l86 -99q40 57 40 143q0 96 -58 160t-150 64t-150 -64t-58 -160t58 -160t150 -64q39 0 69 10zM656 96l95 -109l-93 -77l-101 116q-75 -35 -157 -35q-148 0 -250 99.5t-102 249.5t102 249.5t250 99.5t250 -99.5t102 -249.5q0 -145 -96 -244z"/>
<glyph glyph-name="R" horiz-adv-x="614" unicode="R" d="M211 291h44q87 0 125.5 30.5t38.5 101.5t-39.5 102.5t-124.5 31.5h-44v-266zM432 212l141 -212h-162l-112 172q-19 -3 -40 -3h-48v-169h-140v680h188q144 0 224 -66.5t80 -190.5q0 -152 -131 -211z"/>
<glyph glyph-name="S" horiz-adv-x="537" unicode="S" d="M267 -9q-93 0 -157.5 39t-97.5 104l114 66q52 -85 138 -85q43 0 69 19.5t26 49.5q0 23 -14 40t-31.5 26.5t-56.5 26.5l-35 15q-83 36 -125.5 83.5t-42.5 127.5t56.5 132.5t148.5 52.5q68 0 116.5 -26.5t82.5 -85.5l-109 -70q-33 60 -90 60q-30 0 -48.5 -17t-18.5 -43 q0 -30 19 -47t67 -38l35 -15q97 -42 141.5 -89.5t44.5 -130.5q0 -92 -64.5 -143.5t-167.5 -51.5z"/>
<glyph glyph-name="T" horiz-adv-x="592" unicode="T" d="M226 0v557h-194v123h528v-123h-194v-557h-140z"/>
<glyph glyph-name="U" horiz-adv-x="686" unicode="U" d="M344 -9q-123 0 -199.5 65.5t-76.5 189.5v434h140v-426q0 -73 32.5 -105t103.5 -32q70 0 102 32t32 105v426h140v-434q0 -124 -76 -189.5t-198 -65.5z"/>
<glyph glyph-name="V" horiz-adv-x="664" unicode="V" d="M331 -6l-310 686h150l117 -262q12 -26 25 -64.5t21 -63.5l7 -26q26 95 52 154l114 262h136l-298 -686h-14z"/>
<glyph glyph-name="W" horiz-adv-x="958" unicode="W" d="M273 -6l-251 686h148l99 -273l36 -123q20 77 42 123l131 279h14l133 -279q10 -20 20.5 -51t16.5 -52l5 -20q19 76 36 123l98 273h136l-247 -686h-14l-153 328q-8 17 -17.5 42t-15.5 42l-5 17q-21 -63 -39 -101l-159 -328h-14z"/>
<glyph glyph-name="X" horiz-adv-x="660" unicode="X" d="M27 0l222 374l-185 306h159l69 -117q9 -15 20 -38.5t18 -38.5l7 -16q19 58 39 93l66 117h149l-182 -307l226 -373h-160l-107 181q-9 16 -21 40t-19 40l-7 16q-21 -60 -42 -96l-105 -181h-147z"/>
<glyph glyph-name="Y" horiz-adv-x="682" unicode="Y" d="M279 0v216l-258 464h155l120 -219q12 -21 25.5 -53.5t21.5 -53.5l8 -22q27 80 53 129l115 219h143l-242 -454v-226h-141z"/>
<glyph glyph-name="Z" horiz-adv-x="590" unicode="Z" d="M27 0v12l312 545h-257v123h473v-12l-311 -545h294v-123h-511z"/>
<glyph glyph-name="bracketleft" horiz-adv-x="300" unicode="[" d="M41 -62v794h237v-114h-102v-566h102v-114h-237z"/>
<glyph glyph-name="backslash" horiz-adv-x="403" unicode="\" d="M275 -62l-279 794h132l279 -794h-132z"/>
<glyph glyph-name="bracketright" horiz-adv-x="300" unicode="]" d="M21 -62v114h102v566h-102v114h237v-794h-237z"/>
<glyph glyph-name="asciicircum" horiz-adv-x="439" unicode="^" d="M54 447l160 240h11l160 -240h-108l-58 71l-57 -71h-108z"/>
<glyph glyph-name="underscore" horiz-adv-x="283" unicode="_" d="M-2 -128v120h287v-120h-287z"/>
<glyph glyph-name="grave" d="M198 500l-104 188h154l52 -188h-102z" unicode="`"/>
<glyph glyph-name="a" horiz-adv-x="540" unicode="a" d="M206 134h122l-22 52q-10 24 -20 51.5t-14 42.5l-5 16q-14 -56 -38 -110zM19 0l245 528h11l246 -528h-141l-18 42h-193l-18 -42h-132z"/>
<glyph glyph-name="b" horiz-adv-x="512" unicode="b" d="M187 112h93q27 0 43 16t16 42t-16 42.5t-43 16.5h-93v-117zM187 331h75q18 0 29.5 11.5t11.5 29.5t-11.5 28.5t-29.5 10.5h-75v-80zM56 0v522h218q74 0 117 -37.5t43 -92.5q0 -78 -68 -103q52 -12 79.5 -48t27.5 -90q0 -71 -49.5 -111t-134.5 -40h-233z"/>
<glyph glyph-name="c" horiz-adv-x="588" unicode="c" d="M318 -9q-125 0 -200 76.5t-75 193.5t75.5 193.5t195.5 76.5q150 0 223 -114l-108 -72q-41 66 -115 66q-61 0 -96.5 -42t-35.5 -108t36.5 -108t98.5 -42q90 0 126 74l110 -63q-30 -61 -91 -96t-144 -35z"/>
<glyph glyph-name="d" horiz-adv-x="559" unicode="d" d="M192 118h45q140 0 140 143q0 68 -34.5 105.5t-105.5 37.5h-45v-286zM56 0v522h188q118 0 195 -71.5t77 -189.5q0 -117 -77 -189t-195 -72h-188z"/>
<glyph glyph-name="e" horiz-adv-x="480" unicode="e" d="M56 0v522h371v-117h-235v-113h196v-111h-196v-64h245v-117h-381z"/>
<glyph glyph-name="f" horiz-adv-x="459" unicode="f" d="M56 0v522h363v-119h-227v-124h203v-119h-203v-160h-136z"/>
<glyph glyph-name="g" horiz-adv-x="585" unicode="g" d="M331 -9q-132 0 -210 75.5t-78 194.5t79 194.5t196 75.5q126 0 200 -78l-87 -90q-42 48 -113 48q-63 0 -99.5 -43t-36.5 -107q0 -69 35.5 -112t113.5 -43q46 0 81 14v60h-106v109h230v-246q-29 -20 -84 -36t-121 -16z"/>
<glyph glyph-name="h" horiz-adv-x="577" unicode="h" d="M56 0v522h136v-243h193v243h136v-522h-136v158h-193v-158h-136z"/>
<glyph glyph-name="i" horiz-adv-x="252" unicode="i" d="M58 0v522h136v-522h-136z"/>
<glyph glyph-name="j" horiz-adv-x="424" unicode="j" d="M191 -9q-128 0 -178 111l110 62q11 -21 18 -30.5t19 -17t28 -7.5q47 0 47 58v355h136v-359q0 -88 -49 -130t-131 -42z"/>
<glyph glyph-name="k" horiz-adv-x="554" unicode="k" d="M181 255q40 75 72 120l108 147h149l-178 -232l202 -290h-161l-134 195l-47 -54v-141h-136v522h136v-136q0 -51 -11 -131z"/>
<glyph glyph-name="l" horiz-adv-x="462" unicode="l" d="M56 0v522h136v-404h230v-118h-366z"/>
<glyph glyph-name="m" horiz-adv-x="656" unicode="m" d="M56 0v529h10l264 -280l259 280h10v-529h-131v159l7 102q-33 -51 -68 -89l-74 -81h-10l-76 81q-16 17 -32.5 39t-25.5 36l-9 14q7 -59 7 -102v-159h-131z"/>
<glyph glyph-name="n" horiz-adv-x="556" unicode="n" d="M489 -8l-243 210q-17 15 -36 34.5t-29 31.5l-10 12q10 -67 10 -110v-170h-125v529h11l241 -208q19 -16 37.5 -36t28.5 -31l9 -12q-8 68 -8 111v169h125v-530h-11z"/>
<glyph glyph-name="o" horiz-adv-x="648" unicode="o" d="M324 111q63 0 102.5 41.5t39.5 108.5q0 66 -39.5 108t-102.5 42t-102.5 -42t-39.5 -108q0 -67 39.5 -108.5t102.5 -41.5zM324 -9q-117 0 -199 76.5t-82 193.5q0 118 82 194t199 76t199 -76t82 -194q0 -117 -82 -193.5t-199 -76.5z"/>
<glyph glyph-name="p" horiz-adv-x="505" unicode="p" d="M192 230h32q54 0 80 20.5t26 66.5q0 87 -106 87h-32v-174zM56 0v522h171q112 0 177.5 -53.5t65.5 -151.5q0 -97 -65.5 -150.5t-177.5 -53.5h-35v-113h-136z"/>
<glyph glyph-name="q" horiz-adv-x="648" unicode="q" d="M324 107q8 0 26 2l-56 65l88 71l63 -74q21 36 21 90q0 66 -39.5 108t-102.5 42t-102.5 -42t-39.5 -108q0 -68 39.5 -111t102.5 -43zM508 -77l-75 88q-52 -20 -109 -20q-117 0 -199 76.5t-82 193.5q0 118 82 194t199 76t199 -76t82 -194q0 -113 -77 -188l68 -79z"/>
<glyph glyph-name="r" horiz-adv-x="517" unicode="r" d="M192 240h38q54 0 78.5 19t24.5 63t-24.5 63.5t-78.5 19.5h-38v-165zM380 163l100 -163h-153l-73 126q-7 -1 -21 -1h-41v-125h-136v522h177q109 0 174 -50t65 -150q0 -111 -92 -159z"/>
<glyph glyph-name="s" horiz-adv-x="459" unicode="s" d="M230 -9q-77 0 -133.5 33t-83.5 88l106 62q39 -68 109 -68q28 0 46 10t18 28t-15 29t-56 28l-22 9q-72 29 -108 67t-36 103q0 68 47.5 109.5t123.5 41.5q58 0 98.5 -20.5t71.5 -69.5l-103 -59q-23 37 -63 37q-20 0 -32.5 -10t-12.5 -27q0 -13 8 -23t17.5 -15t28.5 -13 l22 -9q84 -34 125 -71.5t41 -105.5q0 -73 -52.5 -113.5t-144.5 -40.5z"/>
<glyph glyph-name="t" horiz-adv-x="505" unicode="t" d="M184 0v404h-148v118h433v-118h-148v-404h-137z"/>
<glyph glyph-name="u" horiz-adv-x="556" unicode="u" d="M279 -9q-103 0 -164.5 56t-61.5 159v316h136v-314q0 -96 89 -96t89 96v314h136v-316q0 -103 -61.5 -159t-162.5 -56z"/>
<glyph glyph-name="v" horiz-adv-x="542" unicode="v" d="M266 -7l-249 529h150l67 -152q12 -28 23 -60.5t15 -51.5l5 -18q16 69 43 130l67 152h138l-247 -529h-12z"/>
<glyph glyph-name="w" horiz-adv-x="750" unicode="w" d="M220 -7l-203 529h146l59 -161q8 -23 16.5 -52t12.5 -46l4 -17q14 63 39 116l79 166h11l82 -166q12 -25 22.5 -54t14.5 -46l4 -16q14 61 33 115l58 161h135l-200 -529h-12l-101 199q-10 20 -20.5 47.5t-15.5 44.5l-5 17q-17 -63 -41 -109l-106 -199h-12z"/>
<glyph glyph-name="x" horiz-adv-x="567" unicode="x" d="M20 0l178 289l-147 233h152l43 -73q11 -19 20.5 -42t13.5 -37l4 -14q17 53 39 93l41 73h145l-145 -234l183 -288h-154l-65 104q-13 21 -25.5 47.5t-18.5 42.5l-6 15q-20 -58 -48 -105l-63 -104h-147z"/>
<glyph glyph-name="y" horiz-adv-x="547" unicode="y" d="M209 0v171l-194 351h155l63 -120q12 -24 24 -56.5t18 -53.5l6 -21q21 80 47 131l60 120h144l-187 -349v-173h-136z"/>
<glyph glyph-name="z" horiz-adv-x="496" unicode="z" d="M32 0v11l223 394h-184v117h391v-11l-223 -394h207v-117h-414z"/>
<glyph glyph-name="braceleft" horiz-adv-x="300" unicode="{" d="M232 -62q-158 0 -158 144v92q0 35 -13.5 50.5t-43.5 15.5h-18v114h18q30 0 43.5 15.5t13.5 50.5v168q0 144 158 144h47v-114h-35q-20 0 -27 -8t-7 -26v-181q0 -91 -93 -106q93 -15 93 -106v-105q0 -18 7 -26t27 -8h35v-114h-47z"/>
<glyph glyph-name="bar" horiz-adv-x="278" unicode="|" d="M74 -63v795h130v-795h-130z"/>
<glyph glyph-name="braceright" horiz-adv-x="300" unicode="}" d="M21 -62v114h35q20 0 27 8t7 26v105q0 91 93 106q-93 15 -93 106v181q0 18 -7 26t-27 8h-35v114h47q158 0 158 -144v-168q0 -35 13.5 -50.5t43.5 -15.5h18v-114h-18q-30 0 -43.5 -15.5t-13.5 -50.5v-92q0 -144 -158 -144h-47z"/>
<glyph glyph-name="asciitilde" horiz-adv-x="408" unicode="~" d="M124 205l-91 9q4 68 34.5 104t76.5 36q31 0 63 -20q6 -4 14.5 -9.5t13 -8.5t10 -5t10.5 -2q25 0 29 45l91 -9q-4 -68 -34 -104t-77 -36q-31 0 -63 20q-6 4 -14.5 9.5t-12.5 8.5t-10 5t-11 2q-25 0 -29 -45z"/>
<glyph glyph-name="nbspace" horiz-adv-x="182" unicode=" "/>
<glyph glyph-name="exclamdown" horiz-adv-x="283" unicode="¡" d="M195 449l22 -449h-151l22 449h107zM141 686q35 0 60 -24t25 -61q0 -36 -25 -60t-60 -24q-34 0 -59 24t-25 60q0 37 24.5 61t59.5 24z"/>
<glyph glyph-name="cent" d="M249 107v169q-52 -20 -52 -85t52 -84zM316 -7v-109h-67v109q-81 11 -133 65.5t-52 132.5q0 79 52 134t133 65v100h67v-100q87 -11 134 -73l-87 -75q-19 28 -47 36v-174q29 7 53 33l84 -77q-54 -59 -137 -67z" unicode="¢"/>
<glyph glyph-name="sterling" d="M168 96q-20 14 -40 14q-27 0 -27 -20q0 -10 7.5 -18t19.5 -8q28 0 40 32zM152 213h-93v88h48q-15 38 -15 73q0 70 49 113.5t137 43.5q134 0 183 -97l-108 -65q-23 46 -68 46q-50 0 -50 -53q0 -20 15 -61h134v-88h-101q8 -30 8 -61q0 -10 -2 -28q33 -12 60 -12q36 0 62 29 l81 -87q-28 -34 -58.5 -48.5t-74.5 -14.5q-57 0 -116 44q-46 -44 -112 -44q-51 0 -82.5 27t-31.5 69t27.5 69t72.5 27q22 0 50 -7q-6 18 -15 37z" unicode="£"/>
<glyph glyph-name="currency" d="M65 276h-45v81h57q24 81 82 127.5t139 46.5q121 0 184 -93l-93 -71q-18 27 -38 38.5t-51 11.5q-61 0 -85 -60h116v-81h-130v-14v-21h130v-81h-115q23 -54 86 -54q54 0 89 61l102 -62q-63 -114 -192 -114q-80 0 -138.5 45.5t-82.5 123.5h-60v81h45v21v14z" unicode="¤"/>
<glyph glyph-name="yen" d="M183 0v73h-145v87h145v21l-7 14h-138v87h94l-121 240h153l60 -134q10 -22 17.5 -49t10.5 -43l2 -17q10 60 32 109l61 134h141l-119 -240h95v-87h-138l-7 -14v-21h145v-87h-145v-73h-136z" unicode="¥"/>
<glyph glyph-name="brokenbar" horiz-adv-x="243" unicode="¦" d="M125 173q-35 0 -60 24t-25 61q0 36 25 60t60 24q34 0 59 -24t25 -60q0 -37 -24.5 -61t-59.5 -24z"/>
<glyph glyph-name="section" d="M303 134q28 11 28 31q0 10 -5.5 18t-11.5 11.5t-18 8.5l-96 43h-1q-1 1 -2 1q-13 -2 -21 -10t-8 -20q0 -22 26 -34l107 -48q1 0 1 -0.5t1 -0.5zM134 288q-37 38 -37 102q0 61 43.5 101t118.5 40q100 0 153 -76l-100 -65q-19 29 -47 29q-32 0 -32 -25q0 -19 29 -32l89 -40 q105 -47 105 -127q0 -73 -85 -110q37 -42 37 -93q0 -66 -46 -102.5t-129 -36.5q-61 0 -112 26.5t-76 68.5l103 67q27 -49 74 -49q45 0 45 24q0 16 -26 28l-103 46q-94 42 -94 117q0 78 90 107z" unicode="§"/>
<glyph glyph-name="dieresis" d="M141 506q-30 0 -53 22.5t-23 53.5t23 53.5t53 22.5t53 -22.5t23 -53.5t-23 -53.5t-53 -22.5zM359 506q-30 0 -53 22.5t-23 53.5t23 53.5t53 22.5t53 -22.5t23 -53.5t-23 -53.5t-53 -22.5z" unicode="¨"/>
<glyph glyph-name="copyright" horiz-adv-x="594" unicode="©" d="M304 116q-68 0 -111 41.5t-43 105.5q0 65 42.5 107t107.5 42q74 0 124 -54l-71 -66q-17 22 -44 22q-45 0 -45 -51q0 -22 12.5 -36.5t34.5 -14.5q28 0 43 21l72 -63q-46 -54 -122 -54zM299 54q86 0 145 58t59 151t-59 151t-145 58q-88 0 -148 -58t-60 -151t60 -151 t148 -58zM299 -5q-110 0 -190 77t-80 191t80 191t190 77q109 0 187.5 -77t78.5 -191t-78.5 -191t-187.5 -77z"/>
<glyph glyph-name="ordfeminine" horiz-adv-x="428" unicode="ª" d="M260 304h-72q-36 0 -36 -29q0 -12 10.5 -20t30.5 -8q34 0 50.5 13.5t16.5 33.5v10zM260 376q-3 55 -57 55q-46 0 -81 -33l-73 69q64 64 169 64q71 0 117.5 -41t46.5 -121v-207h-122l3 45q-37 -54 -103 -54q-56 0 -92.5 29t-36.5 84q0 54 40 82t106 28h83z"/>
<glyph glyph-name="guillemotleft" horiz-adv-x="504" unicode="«" d="M127 32l-95 168v8l95 165h130l-98 -169l98 -172h-130zM342 32l-95 168v8l95 165h130l-98 -169l98 -172h-130z"/>
<glyph glyph-name="logicalnot" horiz-adv-x="243" unicode="¬" d="M125 173q-35 0 -60 24t-25 61q0 36 25 60t60 24q34 0 59 -24t25 -60q0 -37 -24.5 -61t-59.5 -24z"/>
<glyph glyph-name="registered" horiz-adv-x="503" unicode="®" d="M232 469h29q25 0 25 28q0 13 -8 19.5t-17 6.5h-29v-54zM315 430l37 -67h-68l-27 54h-25v-54h-66v217h93q42 0 67 -24t25 -56q0 -47 -36 -70zM250 301q75 0 123 45.5t48 122.5q0 80 -48 126t-123 46q-74 0 -121 -46t-47 -126q0 -77 47 -122.5t121 -45.5zM250 253 q-93 0 -157 62t-64 156q0 95 64 156.5t157 61.5q94 0 159 -61.5t65 -156.5q0 -94 -65 -156t-159 -62z"/>
<glyph glyph-name="degree" horiz-adv-x="332" unicode="°" d="M166 348q22 0 36 14.5t14 37.5t-14 37t-36 14t-36 -14t-14 -37t14 -37.5t36 -14.5zM166 268q-57 0 -98.5 38.5t-41.5 93.5q0 56 41 93.5t99 37.5t99 -37.5t41 -93.5q0 -55 -41 -93.5t-99 -38.5z"/>
<glyph glyph-name="twosuperior" horiz-adv-x="243" unicode="²" d="M125 173q-35 0 -60 24t-25 61q0 36 25 60t60 24q34 0 59 -24t25 -60q0 -37 -24.5 -61t-59.5 -24z"/>
<glyph glyph-name="threesuperior" horiz-adv-x="243" unicode="³" d="M125 173q-35 0 -60 24t-25 61q0 36 25 60t60 24q34 0 59 -24t25 -60q0 -37 -24.5 -61t-59.5 -24z"/>
<glyph glyph-name="acute" d="M200 500l52 188h154l-104 -188h-102z" unicode="´"/>
<glyph glyph-name="mu" horiz-adv-x="243" unicode="µ" d="M125 173q-35 0 -60 24t-25 61q0 36 25 60t60 24q34 0 59 -24t25 -60q0 -37 -24.5 -61t-59.5 -24z"/>
<glyph glyph-name="mu" horiz-adv-x="243" unicode="μ" d="M125 173q-35 0 -60 24t-25 61q0 36 25 60t60 24q34 0 59 -24t25 -60q0 -37 -24.5 -61t-59.5 -24z"/>
<glyph glyph-name="paragraph" horiz-adv-x="708" unicode="¶" d="M276 360h29v203h-29q-42 0 -69 -25.5t-27 -75.5q0 -51 27 -76.5t69 -25.5zM305 0v243h-33q-114 0 -177 61.5t-63 153.5t63.5 157t176.5 65h365v-680h-133v563h-66v-563h-133z"/>
<glyph glyph-name="cedilla" d="M259 -240q-83 0 -118 60l64 39q15 -28 43 -28q15 0 25.5 9t10.5 25q0 34 -41 34h-34v101h69v-39q38 -7 63.5 -33.5t25.5 -70.5q0 -43 -32.5 -70t-75.5 -27z" unicode="¸"/>
<glyph glyph-name="onesuperior" horiz-adv-x="243" unicode="¹" d="M125 173q-35 0 -60 24t-25 61q0 36 25 60t60 24q34 0 59 -24t25 -60q0 -37 -24.5 -61t-59.5 -24z"/>
<glyph glyph-name="ordmasculine" horiz-adv-x="479" unicode="º" d="M240 255q34 0 54.5 23.5t20.5 63.5q0 38 -20.5 61.5t-54.5 23.5q-35 0 -54.5 -23t-19.5 -62q0 -40 19.5 -63.5t54.5 -23.5zM240 152q-85 0 -143 54t-58 136q0 81 58.5 135t142.5 54t142 -54.5t58 -134.5q0 -82 -58 -136t-142 -54z"/>
<glyph glyph-name="guillemotright" horiz-adv-x="504" unicode="»" d="M32 32l98 169l-98 172h130l95 -168v-8l-95 -165h-130zM247 32l98 169l-98 172h130l95 -168v-8l-95 -165h-130z"/>
<glyph glyph-name="onequarter" horiz-adv-x="243" unicode="¼" d="M125 173q-35 0 -60 24t-25 61q0 36 25 60t60 24q34 0 59 -24t25 -60q0 -37 -24.5 -61t-59.5 -24z"/>
<glyph glyph-name="onehalf" horiz-adv-x="243" unicode="½" d="M125 173q-35 0 -60 24t-25 61q0 36 25 60t60 24q34 0 59 -24t25 -60q0 -37 -24.5 -61t-59.5 -24z"/>
<glyph glyph-name="threequarters" horiz-adv-x="243" unicode="¾" d="M125 173q-35 0 -60 24t-25 61q0 36 25 60t60 24q34 0 59 -24t25 -60q0 -37 -24.5 -61t-59.5 -24z"/>
<glyph glyph-name="questiondown" horiz-adv-x="513" unicode="¿" d="M339 449v-159h-46q-58 0 -85 -27t-27 -68q0 -33 23.5 -58.5t60.5 -25.5q39 0 62.5 16t43.5 49l108 -63q-56 -122 -214 -122q-102 0 -162 60t-60 144q0 81 44 132t126 63v59h126zM277 686q35 0 60 -24t25 -61q0 -36 -25 -60t-60 -24q-34 0 -59 24t-25 60q0 37 24.5 61 t59.5 24z"/>
<glyph glyph-name="Agrave" horiz-adv-x="664" unicode="À" d="M235 194h179l-49 118q-9 21 -19 51.5t-16 50.5l-6 20q-20 -74 -40 -122zM21 0l299 686h12l311 -686h-147l-32 77h-276l-32 -77h-135zM280 748l-104 188h154l52 -188h-102z"/>
<glyph glyph-name="Aacute" horiz-adv-x="664" unicode="Á" d="M235 194h179l-49 118q-9 21 -19 51.5t-16 50.5l-6 20q-20 -74 -40 -122zM21 0l299 686h12l311 -686h-147l-32 77h-276l-32 -77h-135zM277 748l52 188h154l-104 -188h-102z"/>
<glyph glyph-name="Acircumflex" horiz-adv-x="664" unicode="Â" d="M235 194h179l-49 118q-9 21 -19 51.5t-16 50.5l-6 20q-20 -74 -40 -122zM21 0l299 686h12l311 -686h-147l-32 77h-276l-32 -77h-135zM161 748l159 216h11l159 -216h-108l-56 65l-57 -65h-108z"/>
<glyph glyph-name="Atilde" horiz-adv-x="664" unicode="Ã" d="M235 194h179l-49 118q-9 21 -19 51.5t-16 50.5l-6 20q-20 -74 -40 -122zM21 0l299 686h12l311 -686h-147l-32 77h-276l-32 -77h-135zM244 748l-91 9q4 68 34.5 104t76.5 36q31 0 63 -20q6 -4 14.5 -9.5t13 -8.5t10 -5t10.5 -2q25 0 29 45l91 -9q-4 -68 -34 -104t-77 -36 q-31 0 -63 20q-6 4 -14.5 9.5t-12.5 8.5t-10 5t-11 2q-25 0 -29 -45z"/>
<glyph glyph-name="Adieresis" horiz-adv-x="664" unicode="Ä" d="M235 194h179l-49 118q-9 21 -19 51.5t-16 50.5l-6 20q-20 -74 -40 -122zM21 0l299 686h12l311 -686h-147l-32 77h-276l-32 -77h-135zM223 754q-30 0 -53 22.5t-23 53.5t23 53.5t53 22.5t53 -22.5t23 -53.5t-23 -53.5t-53 -22.5zM441 754q-30 0 -53 22.5t-23 53.5t23 53.5 t53 22.5t53 -22.5t23 -53.5t-23 -53.5t-53 -22.5z"/>
<glyph glyph-name="Aring" horiz-adv-x="664" unicode="Å" d="M235 194h179l-49 118q-9 21 -19 51.5t-16 50.5l-6 20q-20 -74 -40 -122zM332 796q19 0 31 12t12 33t-12 33t-31 12t-31 -12t-12 -33t12 -33t31 -12zM21 0l299 686h12l311 -686h-147l-32 77h-276l-32 -77h-135zM332 722q-54 0 -91.5 35t-37.5 84t37.5 84t91.5 35t91.5 -35 t37.5 -84t-37.5 -84t-91.5 -35z"/>
<glyph glyph-name="AE" horiz-adv-x="990" unicode="Æ" d="M297 198h170v194q0 18 2.5 42t4.5 39l3 15q-20 -52 -43 -86zM15 0l467 680h435v-123h-310v-216h273v-120h-273v-98h324v-123h-464v77h-252l-52 -77h-148z"/>
<glyph glyph-name="Ccedilla" horiz-adv-x="726" unicode="Ç" d="M344 -5q-128 18 -212 114t-84 231q0 150 101 249t249 99q183 0 272 -139l-107 -76q-55 89 -165 89q-91 0 -148.5 -63t-57.5 -159t57.5 -160t148.5 -64q62 0 102.5 26t72.5 74l109 -75q-93 -143 -269 -150v-30q38 -7 63.5 -33.5t25.5 -70.5q0 -43 -32.5 -70t-75.5 -27 q-83 0 -118 60l64 39q15 -28 43 -28q15 0 25.5 9t10.5 25q0 34 -41 34h-34v96z"/>
<glyph glyph-name="Egrave" horiz-adv-x="594" unicode="È" d="M71 0v680h450v-123h-310v-216h273v-120h-273v-98h324v-123h-464zM258 748l-104 188h154l52 -188h-102z"/>
<glyph glyph-name="Eacute" horiz-adv-x="594" unicode="É" d="M71 0v680h450v-123h-310v-216h273v-120h-273v-98h324v-123h-464zM246 748l52 188h154l-104 -188h-102z"/>
<glyph glyph-name="Ecircumflex" horiz-adv-x="594" unicode="Ê" d="M71 0v680h450v-123h-310v-216h273v-120h-273v-98h324v-123h-464zM135 748l159 216h11l159 -216h-108l-56 65l-57 -65h-108z"/>
<glyph glyph-name="Edieresis" horiz-adv-x="594" unicode="Ë" d="M71 0v680h450v-123h-310v-216h273v-120h-273v-98h324v-123h-464zM190 754q-30 0 -53 22.5t-23 53.5t23 53.5t53 22.5t53 -22.5t23 -53.5t-23 -53.5t-53 -22.5zM408 754q-30 0 -53 22.5t-23 53.5t23 53.5t53 22.5t53 -22.5t23 -53.5t-23 -53.5t-53 -22.5z"/>
<glyph glyph-name="Igrave" horiz-adv-x="287" unicode="Ì" d="M74 0v680h140v-680h-140zM91 748l-104 188h154l52 -188h-102z"/>
<glyph glyph-name="Iacute" horiz-adv-x="287" unicode="Í" d="M74 0v680h140v-680h-140zM93 748l52 188h154l-104 -188h-102z"/>
<glyph glyph-name="Icircumflex" horiz-adv-x="287" unicode="Î" d="M74 0v680h140v-680h-140zM-22 748l159 216h11l159 -216h-108l-56 65l-57 -65h-108z"/>
<glyph glyph-name="Idieresis" horiz-adv-x="287" unicode="Ï" d="M74 0v680h140v-680h-140zM34 754q-30 0 -53 22.5t-23 53.5t23 53.5t53 22.5t53 -22.5t23 -53.5t-23 -53.5t-53 -22.5zM252 754q-30 0 -53 22.5t-23 53.5t23 53.5t53 22.5t53 -22.5t23 -53.5t-23 -53.5t-53 -22.5z"/>
<glyph glyph-name="Eth" horiz-adv-x="685" unicode="Ð" d="M211 123h62q109 0 164.5 59t55.5 158t-55.5 158t-164.5 59h-62v-198h151v-121h-151v-115zM71 0v238h-59v121h59v321h209q157 0 257.5 -95t100.5 -245t-100 -245t-258 -95h-209z"/>
<glyph glyph-name="Ntilde" horiz-adv-x="701" unicode="Ñ" d="M616 -6l-343 322q-15 14 -35.5 37.5t-33.5 39.5l-12 16q10 -75 10 -124v-285h-131v686h14l343 -322q15 -14 35 -37t33 -39l12 -17q-9 77 -9 124v285h131v-686h-14zM270 748l-91 9q4 68 34.5 104t76.5 36q31 0 63 -20q6 -4 14.5 -9.5t13 -8.5t10 -5t10.5 -2q25 0 29 45 l91 -9q-4 -68 -34 -104t-77 -36q-31 0 -63 20q-6 4 -14.5 9.5t-12.5 8.5t-10 5t-11 2q-25 0 -29 -45z"/>
<glyph glyph-name="Ograve" horiz-adv-x="800" unicode="Ò" d="M400 116q92 0 150 64t58 160t-58 160t-150 64t-150 -64t-58 -160t58 -160t150 -64zM400 -9q-148 0 -250 99.5t-102 249.5t102 249.5t250 99.5t250 -99.5t102 -249.5t-102 -249.5t-250 -99.5zM348 748l-104 188h154l52 -188h-102z"/>
<glyph glyph-name="Oacute" horiz-adv-x="800" unicode="Ó" d="M400 116q92 0 150 64t58 160t-58 160t-150 64t-150 -64t-58 -160t58 -160t150 -64zM400 -9q-148 0 -250 99.5t-102 249.5t102 249.5t250 99.5t250 -99.5t102 -249.5t-102 -249.5t-250 -99.5zM350 748l52 188h154l-104 -188h-102z"/>
<glyph glyph-name="Ocircumflex" horiz-adv-x="800" unicode="Ô" d="M400 116q92 0 150 64t58 160t-58 160t-150 64t-150 -64t-58 -160t58 -160t150 -64zM400 -9q-148 0 -250 99.5t-102 249.5t102 249.5t250 99.5t250 -99.5t102 -249.5t-102 -249.5t-250 -99.5zM235 748l159 216h11l159 -216h-108l-56 65l-57 -65h-108z"/>
<glyph glyph-name="Otilde" horiz-adv-x="800" unicode="Õ" d="M400 116q92 0 150 64t58 160t-58 160t-150 64t-150 -64t-58 -160t58 -160t150 -64zM400 -9q-148 0 -250 99.5t-102 249.5t102 249.5t250 99.5t250 -99.5t102 -249.5t-102 -249.5t-250 -99.5zM320 748l-91 9q4 68 34.5 104t76.5 36q31 0 63 -20q6 -4 14.5 -9.5t13 -8.5 t10 -5t10.5 -2q25 0 29 45l91 -9q-4 -68 -34 -104t-77 -36q-31 0 -63 20q-6 4 -14.5 9.5t-12.5 8.5t-10 5t-11 2q-25 0 -29 -45z"/>
<glyph glyph-name="Odieresis" horiz-adv-x="800" unicode="Ö" d="M400 116q92 0 150 64t58 160t-58 160t-150 64t-150 -64t-58 -160t58 -160t150 -64zM400 -9q-148 0 -250 99.5t-102 249.5t102 249.5t250 99.5t250 -99.5t102 -249.5t-102 -249.5t-250 -99.5zM291 754q-30 0 -53 22.5t-23 53.5t23 53.5t53 22.5t53 -22.5t23 -53.5 t-23 -53.5t-53 -22.5zM509 754q-30 0 -53 22.5t-23 53.5t23 53.5t53 22.5t53 -22.5t23 -53.5t-23 -53.5t-53 -22.5z"/>
<glyph glyph-name="multiply" d="M250 184l-105 -105l-82 82l105 105l-105 105l82 82l105 -105l105 105l82 -82l-105 -105l105 -105l-82 -82z" unicode="×"/>
<glyph glyph-name="Oslash" horiz-adv-x="800" unicode="Ø" d="M400 115q92 0 150.5 64.5t58.5 160.5q0 58 -20 104l-308 -294q50 -35 119 -35zM212 235l307 294q-50 36 -119 36q-92 0 -150.5 -64.5t-58.5 -160.5q0 -58 21 -105zM114 -10l-78 77l74 70q-62 91 -62 203q0 150 102 249.5t250 99.5q121 0 214 -69l72 69l78 -77l-74 -70 q62 -89 62 -202q0 -150 -102 -249.5t-250 -99.5q-120 0 -213 68z"/>
<glyph glyph-name="Ugrave" horiz-adv-x="686" unicode="Ù" d="M344 -9q-123 0 -199.5 65.5t-76.5 189.5v434h140v-426q0 -73 32.5 -105t103.5 -32q70 0 102 32t32 105v426h140v-434q0 -124 -76 -189.5t-198 -65.5zM291 748l-104 188h154l52 -188h-102z"/>
<glyph glyph-name="Uacute" horiz-adv-x="686" unicode="Ú" d="M344 -9q-123 0 -199.5 65.5t-76.5 189.5v434h140v-426q0 -73 32.5 -105t103.5 -32q70 0 102 32t32 105v426h140v-434q0 -124 -76 -189.5t-198 -65.5zM293 748l52 188h154l-104 -188h-102z"/>
<glyph glyph-name="Ucircumflex" horiz-adv-x="686" unicode="Û" d="M344 -9q-123 0 -199.5 65.5t-76.5 189.5v434h140v-426q0 -73 32.5 -105t103.5 -32q70 0 102 32t32 105v426h140v-434q0 -124 -76 -189.5t-198 -65.5zM178 748l159 216h11l159 -216h-108l-56 65l-57 -65h-108z"/>
<glyph glyph-name="Udieresis" horiz-adv-x="686" unicode="Ü" d="M344 -9q-123 0 -199.5 65.5t-76.5 189.5v434h140v-426q0 -73 32.5 -105t103.5 -32q70 0 102 32t32 105v426h140v-434q0 -124 -76 -189.5t-198 -65.5zM234 754q-30 0 -53 22.5t-23 53.5t23 53.5t53 22.5t53 -22.5t23 -53.5t-23 -53.5t-53 -22.5zM452 754q-30 0 -53 22.5 t-23 53.5t23 53.5t53 22.5t53 -22.5t23 -53.5t-23 -53.5t-53 -22.5z"/>
<glyph glyph-name="Yacute" horiz-adv-x="682" unicode="Ý" d="M279 0v216l-258 464h155l120 -219q12 -21 25.5 -53.5t21.5 -53.5l8 -22q27 80 53 129l115 219h143l-242 -454v-226h-141zM293 748l52 188h154l-104 -188h-102z"/>
<glyph glyph-name="Thorn" horiz-adv-x="601" unicode="Þ" d="M211 205h44q85 0 124.5 34.5t39.5 104.5q0 140 -164 140h-44v-279zM71 0v680h140v-73h48q142 0 223 -70t81 -193t-81 -192.5t-223 -69.5h-48v-82h-140z"/>
<glyph glyph-name="germandbls" horiz-adv-x="918" unicode="ß" d="M230 -9q-77 0 -133.5 33t-83.5 88l106 62q39 -68 109 -68q28 0 46 10t18 28t-15 29t-56 28l-22 9q-72 29 -108 67t-36 103q0 68 47.5 109.5t123.5 41.5q58 0 98.5 -20.5t71.5 -69.5l-103 -59q-23 37 -63 37q-20 0 -32.5 -10t-12.5 -27q0 -13 8 -23t17.5 -15t28.5 -13 l22 -9q84 -34 125 -71.5t41 -105.5q0 -73 -52.5 -113.5t-144.5 -40.5zM689 -9q-77 0 -133.5 33t-83.5 88l106 62q39 -68 109 -68q28 0 46 10t18 28t-15 29t-56 28l-22 9q-72 29 -108 67t-36 103q0 68 47.5 109.5t123.5 41.5q58 0 98.5 -20.5t71.5 -69.5l-103 -59 q-23 37 -63 37q-20 0 -32.5 -10t-12.5 -27q0 -13 8 -23t17.5 -15t28.5 -13l22 -9q84 -34 125 -71.5t41 -105.5q0 -73 -52.5 -113.5t-144.5 -40.5z"/>
<glyph glyph-name="agrave" horiz-adv-x="540" unicode="à" d="M206 134h122l-22 52q-10 24 -20 51.5t-14 42.5l-5 16q-14 -56 -38 -110zM19 0l245 528h11l246 -528h-141l-18 42h-193l-18 -42h-132zM218 586l-104 188h154l52 -188h-102z"/>
<glyph glyph-name="aacute" horiz-adv-x="540" unicode="á" d="M206 134h122l-22 52q-10 24 -20 51.5t-14 42.5l-5 16q-14 -56 -38 -110zM19 0l245 528h11l246 -528h-141l-18 42h-193l-18 -42h-132zM220 586l52 188h154l-104 -188h-102z"/>
<glyph glyph-name="acircumflex" horiz-adv-x="540" unicode="â" d="M206 134h122l-22 52q-10 24 -20 51.5t-14 42.5l-5 16q-14 -56 -38 -110zM19 0l245 528h11l246 -528h-141l-18 42h-193l-18 -42h-132zM103 586l159 216h11l159 -216h-108l-56 65l-57 -65h-108z"/>
<glyph glyph-name="atilde" horiz-adv-x="540" unicode="ã" d="M206 134h122l-22 52q-10 24 -20 51.5t-14 42.5l-5 16q-14 -56 -38 -110zM19 0l245 528h11l246 -528h-141l-18 42h-193l-18 -42h-132zM183 586l-91 9q4 68 34.5 104t76.5 36q31 0 63 -20q6 -4 14.5 -9.5t13 -8.5t10 -5t10.5 -2q24 0 29 45l91 -9q-4 -68 -34 -104t-77 -36 q-31 0 -63 20q-6 4 -14.5 9.5t-12.5 8.5t-10 5t-11 2q-24 0 -29 -45z"/>
<glyph glyph-name="adieresis" horiz-adv-x="540" unicode="ä" d="M206 134h122l-22 52q-10 24 -20 51.5t-14 42.5l-5 16q-14 -56 -38 -110zM19 0l245 528h11l246 -528h-141l-18 42h-193l-18 -42h-132zM160 592q-30 0 -53 22.5t-23 53.5t23 53.5t53 22.5t53 -22.5t23 -53.5t-23 -53.5t-53 -22.5zM378 592q-30 0 -53 22.5t-23 53.5t23 53.5 t53 22.5t53 -22.5t23 -53.5t-23 -53.5t-53 -22.5z"/>
<glyph glyph-name="aring" horiz-adv-x="540" unicode="å" d="M206 134h122l-22 52q-10 24 -20 51.5t-14 42.5l-5 16q-14 -56 -38 -110zM268 634q19 0 31 12t12 33t-12 33t-31 12t-31 -12t-12 -33t12 -33t31 -12zM19 0l245 528h11l246 -528h-141l-18 42h-193l-18 -42h-132zM268 560q-54 0 -91.5 35t-37.5 84t37.5 84t91.5 35t91.5 -35 t37.5 -84t-37.5 -84t-91.5 -35z"/>
<glyph glyph-name="ae" horiz-adv-x="799" unicode="æ" d="M266 153h109v90q0 18 2.5 42t4.5 39l2 16q-23 -54 -46 -86zM14 0l374 522h358v-117h-235v-113h196v-111h-196v-64h245v-117h-381v51h-181l-36 -51h-144z"/>
<glyph glyph-name="ccedilla" horiz-adv-x="588" unicode="ç" d="M259 -4q-100 18 -158 90.5t-58 174.5q0 117 75.5 193.5t195.5 76.5q150 0 223 -114l-108 -72q-41 66 -115 66q-61 0 -96.5 -42t-35.5 -108t36.5 -108t98.5 -42q90 0 126 74l110 -63q-29 -59 -87 -94t-138 -37v-30q38 -7 63.5 -33.5t25.5 -70.5q0 -43 -32.5 -70t-75.5 -27 q-83 0 -118 60l64 39q15 -28 43 -28q15 0 25.5 9t10.5 25q0 34 -41 34h-34v97z"/>
<glyph glyph-name="egrave" horiz-adv-x="480" unicode="è" d="M56 0v522h371v-117h-235v-113h196v-111h-196v-64h245v-117h-381zM197 586l-104 188h154l52 -188h-102z"/>
<glyph glyph-name="eacute" horiz-adv-x="480" unicode="é" d="M56 0v522h371v-117h-235v-113h196v-111h-196v-64h245v-117h-381zM194 586l52 188h154l-104 -188h-102z"/>
<glyph glyph-name="ecircumflex" horiz-adv-x="480" unicode="ê" d="M56 0v522h371v-117h-235v-113h196v-111h-196v-64h245v-117h-381zM77 586l159 216h11l159 -216h-108l-56 65l-57 -65h-108z"/>
<glyph glyph-name="edieresis" horiz-adv-x="480" unicode="ë" d="M56 0v522h371v-117h-235v-113h196v-111h-196v-64h245v-117h-381zM135 592q-30 0 -53 22.5t-23 53.5t23 53.5t53 22.5t53 -22.5t23 -53.5t-23 -53.5t-53 -22.5zM353 592q-30 0 -53 22.5t-23 53.5t23 53.5t53 22.5t53 -22.5t23 -53.5t-23 -53.5t-53 -22.5z"/>
<glyph glyph-name="igrave" horiz-adv-x="252" unicode="ì" d="M58 0v522h136v-522h-136zM77 586l-104 188h154l52 -188h-102z"/>
<glyph glyph-name="iacute" horiz-adv-x="252" unicode="í" d="M58 0v522h136v-522h-136zM71 586l52 188h154l-104 -188h-102z"/>
<glyph glyph-name="icircumflex" horiz-adv-x="252" unicode="î" d="M58 0v522h136v-522h-136zM-40 586l159 216h11l159 -216h-108l-56 65l-57 -65h-108z"/>
<glyph glyph-name="idieresis" horiz-adv-x="252" unicode="ï" d="M58 0v522h136v-522h-136zM16 592q-30 0 -53 22.5t-23 53.5t23 53.5t53 22.5t53 -22.5t23 -53.5t-23 -53.5t-53 -22.5zM234 592q-30 0 -53 22.5t-23 53.5t23 53.5t53 22.5t53 -22.5t23 -53.5t-23 -53.5t-53 -22.5z"/>
<glyph glyph-name="eth" horiz-adv-x="559" unicode="ð" d="M192 118h45q140 0 140 143q0 68 -34.5 105.5t-105.5 37.5h-45v-108h103v-113h-103v-65zM56 0v183h-38v113h38v226h188q118 0 195 -71.5t77 -189.5q0 -117 -77 -189t-195 -72h-188z"/>
<glyph glyph-name="ntilde" horiz-adv-x="556" unicode="ñ" d="M489 -8l-243 210q-17 15 -36 34.5t-29 31.5l-10 12q10 -67 10 -110v-170h-125v529h11l241 -208q19 -16 37.5 -36t28.5 -31l9 -12q-8 68 -8 111v169h125v-530h-11zM195 586l-91 9q4 68 34.5 104t76.5 36q31 0 63 -20q6 -4 14.5 -9.5t13 -8.5t10 -5t10.5 -2q24 0 29 45 l91 -9q-4 -68 -34 -104t-77 -36q-31 0 -63 20q-6 4 -14.5 9.5t-12.5 8.5t-10 5t-11 2q-24 0 -29 -45z"/>
<glyph glyph-name="ograve" horiz-adv-x="648" unicode="ò" d="M324 111q63 0 102.5 41.5t39.5 108.5q0 66 -39.5 108t-102.5 42t-102.5 -42t-39.5 -108q0 -67 39.5 -108.5t102.5 -41.5zM324 -9q-117 0 -199 76.5t-82 193.5q0 118 82 194t199 76t199 -76t82 -194q0 -117 -82 -193.5t-199 -76.5zM272 586l-104 188h154l52 -188h-102z "/>
<glyph glyph-name="oacute" horiz-adv-x="648" unicode="ó" d="M324 111q63 0 102.5 41.5t39.5 108.5q0 66 -39.5 108t-102.5 42t-102.5 -42t-39.5 -108q0 -67 39.5 -108.5t102.5 -41.5zM324 -9q-117 0 -199 76.5t-82 193.5q0 118 82 194t199 76t199 -76t82 -194q0 -117 -82 -193.5t-199 -76.5zM274 586l52 188h154l-104 -188h-102z "/>
<glyph glyph-name="ocircumflex" horiz-adv-x="648" unicode="ô" d="M324 111q63 0 102.5 41.5t39.5 108.5q0 66 -39.5 108t-102.5 42t-102.5 -42t-39.5 -108q0 -67 39.5 -108.5t102.5 -41.5zM324 -9q-117 0 -199 76.5t-82 193.5q0 118 82 194t199 76t199 -76t82 -194q0 -117 -82 -193.5t-199 -76.5zM159 586l159 216h11l159 -216h-108 l-56 65l-57 -65h-108z"/>
<glyph glyph-name="otilde" horiz-adv-x="648" unicode="õ" d="M324 111q63 0 102.5 41.5t39.5 108.5q0 66 -39.5 108t-102.5 42t-102.5 -42t-39.5 -108q0 -67 39.5 -108.5t102.5 -41.5zM324 -9q-117 0 -199 76.5t-82 193.5q0 118 82 194t199 76t199 -76t82 -194q0 -117 -82 -193.5t-199 -76.5zM244 586l-91 9q4 68 34.5 104t76.5 36 q31 0 63 -20q6 -4 14.5 -9.5t13 -8.5t10 -5t10.5 -2q25 0 29 45l91 -9q-4 -68 -34 -104t-77 -36q-31 0 -63 20q-6 4 -14.5 9.5t-12.5 8.5t-10 5t-11 2q-25 0 -29 -45z"/>
<glyph glyph-name="odieresis" horiz-adv-x="648" unicode="ö" d="M324 111q63 0 102.5 41.5t39.5 108.5q0 66 -39.5 108t-102.5 42t-102.5 -42t-39.5 -108q0 -67 39.5 -108.5t102.5 -41.5zM324 -9q-117 0 -199 76.5t-82 193.5q0 118 82 194t199 76t199 -76t82 -194q0 -117 -82 -193.5t-199 -76.5zM215 592q-30 0 -53 22.5t-23 53.5 t23 53.5t53 22.5t53 -22.5t23 -53.5t-23 -53.5t-53 -22.5zM433 592q-30 0 -53 22.5t-23 53.5t23 53.5t53 22.5t53 -22.5t23 -53.5t-23 -53.5t-53 -22.5z"/>
<glyph glyph-name="divide" d="M250 11q-34 0 -57.5 23t-23.5 58t23.5 57.5t57.5 22.5q33 0 56.5 -22.5t23.5 -57.5t-23.5 -58t-56.5 -23zM63 207v118h373v-118h-373zM250 360q-34 0 -57.5 23t-23.5 58t23.5 57.5t57.5 22.5q33 0 56.5 -22.5t23.5 -57.5t-23.5 -58t-56.5 -23z" unicode="÷"/>
<glyph glyph-name="oslash" horiz-adv-x="648" unicode="ø" d="M459 324l-213 -197q34 -20 78 -20q65 0 105.5 42t40.5 112q0 33 -11 63zM189 197l213 197q-33 21 -78 21q-65 0 -105.5 -43t-40.5 -111q0 -34 11 -64zM558 415q47 -68 47 -154q0 -117 -82 -193.5t-199 -76.5q-95 0 -169 52l-58 -53l-62 65l56 52q-48 67 -48 154 q0 118 82 194t199 76q96 0 170 -52l57 52l62 -65z"/>
<glyph glyph-name="ugrave" horiz-adv-x="556" unicode="ù" d="M279 -9q-103 0 -164.5 56t-61.5 159v316h136v-314q0 -96 89 -96t89 96v314h136v-316q0 -103 -61.5 -159t-162.5 -56zM229 586l-104 188h154l52 -188h-102z"/>
<glyph glyph-name="uacute" horiz-adv-x="556" unicode="ú" d="M279 -9q-103 0 -164.5 56t-61.5 159v316h136v-314q0 -96 89 -96t89 96v314h136v-316q0 -103 -61.5 -159t-162.5 -56zM233 586l52 188h154l-104 -188h-102z"/>
<glyph glyph-name="ucircumflex" horiz-adv-x="556" unicode="û" d="M279 -9q-103 0 -164.5 56t-61.5 159v316h136v-314q0 -96 89 -96t89 96v314h136v-316q0 -103 -61.5 -159t-162.5 -56zM113 586l159 216h11l159 -216h-108l-56 65l-57 -65h-108z"/>
<glyph glyph-name="udieresis" horiz-adv-x="556" unicode="ü" d="M279 -9q-103 0 -164.5 56t-61.5 159v316h136v-314q0 -96 89 -96t89 96v314h136v-316q0 -103 -61.5 -159t-162.5 -56zM169 592q-30 0 -53 22.5t-23 53.5t23 53.5t53 22.5t53 -22.5t23 -53.5t-23 -53.5t-53 -22.5zM387 592q-30 0 -53 22.5t-23 53.5t23 53.5t53 22.5 t53 -22.5t23 -53.5t-23 -53.5t-53 -22.5z"/>
<glyph glyph-name="yacute" horiz-adv-x="547" unicode="ý" d="M209 0v171l-194 351h155l63 -120q12 -24 24 -56.5t18 -53.5l6 -21q21 80 47 131l60 120h144l-187 -349v-173h-136zM238 586l52 188h154l-104 -188h-102z"/>
<glyph glyph-name="thorn" horiz-adv-x="505" unicode="þ" d="M192 177h32q54 0 80 20.5t26 66.5q0 87 -106 87h-32v-174zM56 0v522h136v-53h35q112 0 177.5 -53.5t65.5 -151.5q0 -97 -65.5 -150.5t-177.5 -53.5h-35v-60h-136z"/>
<glyph glyph-name="OE" horiz-adv-x="997" unicode="Œ" d="M412 123h62v434h-62q-109 0 -164.5 -59t-55.5 -158t55.5 -158t164.5 -59zM405 0q-157 0 -257.5 95t-100.5 245t100 245t258 95h519v-123h-310v-216h273v-120h-273v-98h324v-123h-533z"/>
<glyph glyph-name="oe" horiz-adv-x="791" unicode="œ" d="M322 118h45v286h-45q-140 0 -140 -143q0 -68 34.5 -105.5t105.5 -37.5zM315 0q-118 0 -195 71.5t-77 189.5q0 117 77 189t195 72h423v-117h-235v-113h196v-111h-196v-64h245v-117h-433z"/>
<glyph glyph-name="Scaron" horiz-adv-x="537" unicode="Š" d="M267 -9q-93 0 -157.5 39t-97.5 104l114 66q52 -85 138 -85q43 0 69 19.5t26 49.5q0 23 -14 40t-31.5 26.5t-56.5 26.5l-35 15q-83 36 -125.5 83.5t-42.5 127.5t56.5 132.5t148.5 52.5q68 0 116.5 -26.5t82.5 -85.5l-109 -70q-33 60 -90 60q-30 0 -48.5 -17t-18.5 -43 q0 -30 19 -47t67 -38l35 -15q97 -42 141.5 -89.5t44.5 -130.5q0 -92 -64.5 -143.5t-167.5 -51.5zM250 729l-159 216h108l56 -65l57 65h108l-159 -216h-11z"/>
<glyph glyph-name="scaron" horiz-adv-x="459" unicode="š" d="M230 -9q-77 0 -133.5 33t-83.5 88l106 62q39 -68 109 -68q28 0 46 10t18 28t-15 29t-56 28l-22 9q-72 29 -108 67t-36 103q0 68 47.5 109.5t123.5 41.5q58 0 98.5 -20.5t71.5 -69.5l-103 -59q-23 37 -63 37q-20 0 -32.5 -10t-12.5 -27q0 -13 8 -23t17.5 -15t28.5 -13 l22 -9q84 -34 125 -71.5t41 -105.5q0 -73 -52.5 -113.5t-144.5 -40.5zM209 567l-159 216h108l56 -65l57 65h108l-159 -216h-11z"/>
<glyph glyph-name="Ydieresis" horiz-adv-x="682" unicode="Ÿ" d="M279 0v216l-258 464h155l120 -219q12 -21 25.5 -53.5t21.5 -53.5l8 -22q27 80 53 129l115 219h143l-242 -454v-226h-141zM232 754q-30 0 -53 22.5t-23 53.5t23 53.5t53 22.5t53 -22.5t23 -53.5t-23 -53.5t-53 -22.5zM450 754q-30 0 -53 22.5t-23 53.5t23 53.5t53 22.5 t53 -22.5t23 -53.5t-23 -53.5t-53 -22.5z"/>
<glyph glyph-name="circumflex" d="M85 500l159 216h11l159 -216h-108l-56 65l-57 -65h-108z" unicode="ˆ"/>
<glyph glyph-name="tilde" d="M170 500l-91 9q4 68 34.5 104t76.5 36q31 0 63 -20q6 -4 14.5 -9.5t13 -8.5t10 -5t10.5 -2q25 0 29 45l91 -9q-4 -68 -34 -104t-77 -36q-31 0 -63 20q-6 4 -14.5 9.5t-12.5 8.5t-10 5t-11 2q-25 0 -29 -45z" unicode="˜"/>
<glyph glyph-name="pi" horiz-adv-x="243" unicode="π" d="M125 173q-35 0 -60 24t-25 61q0 36 25 60t60 24q34 0 59 -24t25 -60q0 -37 -24.5 -61t-59.5 -24z"/>
<glyph glyph-name="endash" horiz-adv-x="406" unicode="–" d="M30 167v120h346v-120h-346z"/>
<glyph glyph-name="emdash" horiz-adv-x="657" unicode="—" d="M30 167v120h597v-120h-597z"/>
<glyph glyph-name="quoteleft" horiz-adv-x="242" unicode="‘" d="M122 413q-33 0 -57.5 23t-24.5 56q0 34 30 86l60 102h65l-38 -114q45 -21 45 -73q0 -34 -24 -57t-56 -23z"/>
<glyph glyph-name="quotesinglbase" horiz-adv-x="242" unicode="‚" d="M47 -102l38 114q-45 21 -45 73q0 34 24 57t56 23q33 0 57.5 -23t24.5 -56q0 -34 -30 -86l-60 -102h-65z"/>
<glyph glyph-name="quotedblleft" horiz-adv-x="459" unicode="“" d="M122 413q-33 0 -57.5 23t-24.5 56q0 34 30 86l60 102h65l-38 -114q45 -21 45 -73q0 -34 -24 -57t-56 -23zM339 413q-33 0 -57.5 23t-24.5 56q0 34 30 86l60 102h65l-38 -114q45 -21 45 -73q0 -34 -24 -57t-56 -23z"/>
<glyph glyph-name="quotedblright" horiz-adv-x="459" unicode="”" d="M47 420l38 114q-45 21 -45 73q0 34 24 57t56 23q33 0 57.5 -23t24.5 -56q0 -34 -30 -86l-60 -102h-65zM264 420l38 114q-45 21 -45 73q0 34 24 57t56 23q33 0 57.5 -23t24.5 -56q0 -34 -30 -86l-60 -102h-65z"/>
<glyph glyph-name="dagger" horiz-adv-x="362" unicode="†" d="M120 241v231h-89v111h89v97h122v-97h89v-111h-89v-231h-122z"/>
<glyph glyph-name="daggerdbl" horiz-adv-x="362" unicode="‡" d="M120 241v97h-89v99h89v47h-89v99h89v97h122v-97h89v-99h-89v-47h89v-99h-89v-97h-122z"/>
<glyph glyph-name="ellipsis" horiz-adv-x="739" unicode="…" d="M125 -6q-35 0 -60 24t-25 61q0 36 25 60t60 24q34 0 59 -24t25 -60q0 -37 -24.5 -61t-59.5 -24zM370 -6q-35 0 -60 24t-25 61q0 36 25 60t60 24q34 0 59 -24t25 -60q0 -37 -24.5 -61t-59.5 -24zM615 -6q-35 0 -60 24t-25 61q0 36 25 60t60 24q34 0 59 -24t25 -60 q0 -37 -24.5 -61t-59.5 -24z"/>
<glyph glyph-name="perthousand" horiz-adv-x="1100" unicode="‰" d="M606 88q40 0 40 60t-40 60t-40 -60t40 -60zM934 88q40 0 40 60t-40 60t-40 -60t40 -60zM167 314q40 0 40 60t-40 60t-40 -60t40 -60zM606 -9q-63 0 -104.5 44t-41.5 113q0 68 41.5 112.5t104.5 44.5q62 0 103.5 -44.5t41.5 -112.5t-41.5 -112.5t-103.5 -44.5zM934 -9 q-63 0 -104.5 44t-41.5 113q0 68 41.5 112.5t104.5 44.5q62 0 103.5 -44.5t41.5 -112.5t-41.5 -112.5t-103.5 -44.5zM154 0l330 522h133l-330 -522h-133zM167 217q-63 0 -104.5 44t-41.5 113q0 68 41.5 112.5t104.5 44.5q62 0 103.5 -44.5t41.5 -112.5t-41.5 -112.5 t-103.5 -44.5z"/>
<glyph glyph-name="guilsinglleft" horiz-adv-x="289" unicode="‹" d="M127 32l-95 168v8l95 165h130l-98 -169l98 -172h-130z"/>
<glyph glyph-name="guilsinglright" horiz-adv-x="289" unicode="›" d="M32 32l98 169l-98 172h130l95 -168v-8l-95 -165h-130z"/>
<glyph glyph-name="Euro" d="M65 276h-45v81h57q24 81 82 127.5t139 46.5q121 0 184 -93l-93 -71q-18 27 -38 38.5t-51 11.5q-61 0 -85 -60h116v-81h-130v-14v-21h130v-81h-115q23 -54 86 -54q54 0 89 61l102 -62q-63 -114 -192 -114q-80 0 -138.5 45.5t-82.5 123.5h-60v81h45v21v14z" unicode="€"/>
<glyph glyph-name="trademark" horiz-adv-x="711" unicode="™" d="M116 378v228h-81v74h254v-74h-81v-228h-92zM341 378v306h10l147 -147l147 147h10v-306h-90v123l-62 -71h-9l-63 71v-123h-90z"/>
<glyph glyph-name="partialdiff" horiz-adv-x="243" unicode="∂" d="M125 173q-35 0 -60 24t-25 61q0 36 25 60t60 24q34 0 59 -24t25 -60q0 -37 -24.5 -61t-59.5 -24z"/>
<glyph glyph-name="product" horiz-adv-x="243" unicode="∏" d="M125 173q-35 0 -60 24t-25 61q0 36 25 60t60 24q34 0 59 -24t25 -60q0 -37 -24.5 -61t-59.5 -24z"/>
<glyph glyph-name="summation" horiz-adv-x="648" unicode="∑" d="M324 111q63 0 102.5 41.5t39.5 108.5q0 66 -39.5 108t-102.5 42t-102.5 -42t-39.5 -108q0 -67 39.5 -108.5t102.5 -41.5zM397 0q32 -27 64 -27q39 0 68 33l82 -80q-52 -71 -148 -71q-56 0 -102.5 29t-100.5 84q-24 25 -43 35.5t-44 10.5q-40 0 -77 -48l-84 82 q32 43 79 59q-48 67 -48 154q0 118 82 194t199 76t199 -76t82 -194q0 -97 -58.5 -168t-149.5 -93z"/>
<glyph glyph-name="minus" d="M63 207v118h374v-118h-374z" unicode="−"/>
<glyph glyph-name="radical" horiz-adv-x="243" unicode="√" d="M125 173q-35 0 -60 24t-25 61q0 36 25 60t60 24q34 0 59 -24t25 -60q0 -37 -24.5 -61t-59.5 -24z"/>
<glyph glyph-name="approxequal" horiz-adv-x="243" unicode="≈" d="M125 173q-35 0 -60 24t-25 61q0 36 25 60t60 24q34 0 59 -24t25 -60q0 -37 -24.5 -61t-59.5 -24z"/>
<glyph glyph-name="lessequal" horiz-adv-x="243" unicode="≤" d="M125 173q-35 0 -60 24t-25 61q0 36 25 60t60 24q34 0 59 -24t25 -60q0 -37 -24.5 -61t-59.5 -24z"/>
<glyph glyph-name="greaterequal" horiz-adv-x="243" unicode="≥" d="M125 173q-35 0 -60 24t-25 61q0 36 25 60t60 24q34 0 59 -24t25 -60q0 -37 -24.5 -61t-59.5 -24z"/>
<glyph glyph-name="lozenge" horiz-adv-x="243" unicode="◊" d="M125 173q-35 0 -60 24t-25 61q0 36 25 60t60 24q34 0 59 -24t25 -60q0 -37 -24.5 -61t-59.5 -24z"/>
</font>
</defs>
</svg>
