<?xml version="1.0" encoding="utf-8"?>
<!-- Generator: Adobe Illustrator 19.1.0, SVG Export Plug-In . SVG Version: 6.00 Build 0)  -->
<svg version="1.1" id="Calque_1" xmlns="http://www.w3.org/2000/svg" xmlns:xlink="http://www.w3.org/1999/xlink" x="0px" y="0px"
	 viewBox="0 0 420 210" style="enable-background:new 0 0 420 210;" xml:space="preserve">
<style type="text/css">
	.st0{fill-rule:evenodd;clip-rule:evenodd;fill:#4EAC3A;}
	.st1{fill-rule:evenodd;clip-rule:evenodd;fill:#FFFFFF;}
</style>
<rect class="st0" width="420" height="210"/>
<g>
	<path class="st1" d="M241.7,59.7c5.1-0.2,9-2.3,13.6-3.2c5.1-0.7,4.8,5.1,8.8,5.8c0.5,0.7,1.4,1.2,2.1,1.8c0.5,1.8,0.9,3.7,0.9,5.8
		c0.7,0.5,1.4,0.5,2.1,0c2.8-2.1,4.1-7.4,9-4.8c2.5,1.8,6.7,3.2,5.8,8.1c-0.7,3.2-2.3,5.8-1.6,9.9c-0.7,8.8,0.9,18-1.8,25.3
		c-0.9,4.1-5.1,10.8-0.5,14.3c3.2,2.1,6.2,4.1,10.4,4.6c1.4,0.5,2.5,0.9,3,2.5c0,1.6-1.2,2.5-2.3,3.2c-3.7-0.2-4.4-4.1-7.8-4.6
		c-2.3-1.2-6.9-1.2-9.2,0.2c-3.9,2.1-4.8,6.7-6.4,10.6c-0.2,1.8,0,2.5-1.2,3.5c-0.9,0.5-2.3,1.4-3.7,0.7c-0.7-0.2-0.5-1.2-0.7-1.6
		c0.9-2.3,2.5-3.9,3.5-6.4c0.2-1.6,1.6-3,0.9-5.1c-0.5-1.4-1.8-2.3-3-2.8c-2.1-0.2-5.1-0.2-6,1.4c-1.4,1.6-2.5,3.7-5.1,4.1
		c-0.9-0.7-2.1-0.7-2.5-2.1c0-1.6,1.6-2.1,2.5-3c3-2.3,7.1-3.7,7.8-8.1c-0.5-0.9-0.9-1.4-1.8-1.8c-3-1.4-5.3,2.5-7.8,0
		c-0.2-2.5,3.2-2.5,2.3-5.1c-1.6-1.6-1.6-4.1-3.5-5.3c-1.4-0.5-1.8,0.5-2.5,0.9c-2.5,2.1-5.1,3.5-8.1,4.6c-2.3,0.9-4.8,1.8-7.1,3
		l-0.7,1.2c-1.8,8.1-2.8,16.8-7.6,22.8c-0.7,1.8-1.6,3.5-0.9,5.8c0.9,4.1,4.6,6.9,8.5,8.1c0.9,0.7,1.6,1.4,2.1,2.3
		c-0.7,1.4-2.1,2.1-3.7,2.3c-2.1-0.7-3.5-2.5-4.8-3.9c-5.1-3.2-10.1-9.7-18-6c-3,2.3-6.9,3.7-8.8,7.1c-0.5,1.4-0.7,3-2.1,3.7
		c-1.2,0.5-2.5,0.2-3.2-0.2c-0.9-2.8,1.2-4.6,2.1-6.7c2.8-3.5,9-4.1,9.7-9.7c-0.2-1.2-0.7-2.1-1.6-2.8c-2.8-0.9-5.5,0-8.5,0
		c-0.9-0.5-2.8,0-2.5-1.6c1.6-2.3,4.4-4.1,8.1-3.2c2.8,1.4,6.4,0,9.4,0c0.9-0.7,2.8-0.7,3-2.1c0-1.8-0.5-4.4,0.5-5.8
		c0.9-2.1,4.8-0.7,5.1-3.5c0-1.6,0.9-3.2-0.7-3.9c-4.1-0.2-8.3-0.7-12.7-0.9c-5.5-0.2-11.1-0.7-16.4-1.6c-3.9,0.2-7.4,1.6-11.7,0.9
		c-4.4-0.5-7.8-2.1-12.4-2.5c-0.7,0.2-1.4,0.2-1.8,0.9c-1.2,3,0.9,5.1,1.2,7.6c-0.2,1.4-1.8,1.8-2.8,2.3c-0.9-0.2-1.8-0.5-2.3-1.4
		c-1.4-1.8,0.7-4.1-0.5-6.2c-0.2-1.6-0.2-3.7-1.8-4.1c-2.8-0.9-5.8-1.4-8.1-2.5c-3.2-0.7-4.8,1.6-6.9,3l-8.3,3.9
		c-2.1,1.4-2.5,3.9-4.6,4.8c-1.8,0.2-2.3-1.2-3.5-1.8c-0.7-3,2.5-3.9,4.4-5.3c3-1.6,6-3.5,9-4.6c1.2-1.4,3.7-2.1,3-4.6
		c-0.9-1.2-1.8-2.1-3.7-2.1c-1.6,0-2.8,1.4-4.4,0.9c-1.2-0.9-2.8-1.6-2.5-3.5c1.2-3.5,8.8,0.5,8.1-5.1c0.7-4.8,3.9-7.8,5.1-12.2
		c-1.2-2.8-2.1-7.4,0-10.1c1.8-2.5,4.6-3.2,6.9-4.8c2.3-0.7,4.6,0.2,7.1,0.2c2.8,2.8,8.1,1.8,12.4,2.1l5.3-0.2
		c1.4-0.7,3-0.9,4.1-1.8L180,71c5.3-2.8,10.8-5.1,16.4-7.8c1.8-0.7,4.1-0.5,5.8-1.4c6.4-2.5,12.2-6,20.5-5.1
		C229.3,57.4,235,59.5,241.7,59.7L241.7,59.7z"/>
	<path class="st0" d="M258.1,59c0.2,0.5,0.2,1.4,0,1.6c-2.1,0.7-4.8,0.2-6.2-0.5c0.2-1.2,1.6-1.4,2.8-1.6
		C255.8,58.6,257.2,58.3,258.1,59L258.1,59z"/>
	<path class="st0" d="M212.9,63.9c-0.9,1.6-2.8,2.1-4.1,3.5l-8.3,3.2c-1.4,0.5-3.2,1.2-4.8,0.7c-0.2-1.6,1.6-2.1,2.5-3.2
		c3.9-2.5,9.2-3.2,13.6-4.8C212.5,63.2,212.9,63.4,212.9,63.9L212.9,63.9z"/>
	<path class="st0" d="M259.2,64.3c0.7,0.9,1.8,1.8,0.9,3.2c-1.2,1.2-3,2.5-4.8,1.6c-1.8-1.2-3-2.8-4.1-4.6c-0.2-0.7,0.5-0.7,0.7-0.9
		C254.6,63.4,256.9,63.9,259.2,64.3L259.2,64.3z"/>
	<path class="st0" d="M238.5,67.1c-0.5,4.1,3.9,8.5,0,11.5c-3,3.9-7.8,5.1-12.9,6c-5.3-0.2-7.1-4.8-10.8-7.1
		c-1.2-0.5-1.8-1.8-1.4-3.5c-2.5-0.7-3.5,2.3-4.8,3.5c-3,1.4-7.4,0.9-10.8,1.6c-3,0.2-6,0.7-9,0.9c-1.6,0.5-2.5,1.2-4.4,1.2
		c-0.5-0.7,0.7-1.2,0.9-1.8l4.6-2.1l8.5-2.1c3-0.2,5.5-1.4,7.6-2.5c3.5-1.8,7.8-2.5,11.1-4.6c5.1-2.1,11.7-1.8,18-1.6
		C236.2,66.2,237.8,65.9,238.5,67.1L238.5,67.1z"/>
	<path class="st0" d="M280.7,70.3c0.9,3-0.9,5.1-0.9,7.8l-1.4,9.4c-0.5,4.4-1.4,8.8-2.5,12.7c-1.8,3.7-2.8,7.6-5.5,10.4
		c-2.3,3.7-6.2,5.5-11.5,4.8c-2.5-0.7-4.6-2.3-5.5-4.8l0.5-0.7c1.2-0.2,1.6,0.7,2.5,1.2c1.8,0.2,4.8,1.4,6-0.5
		c-1.2-2.5-4.6-3-5.8-5.8c-2.8-4.4-0.9-11.5-0.2-16.6c0.7-2.8,1.4-5.3,2.5-7.6c0.9-3.2,2.5-6.4,5.3-8.1c0.9,0,1.4,0.5,1.6,0.7
		c-0.7,6.7-3.9,11.3-4.6,17.7l-1.2,7.8c0.5,3.2,3.7,3.9,5.1,6.4c0.7,0.5,1.6,0.2,2.5-0.2c1.8-0.9,2.1-3,2.8-4.8
		c0.7-2.5,1.4-5.3,1.8-7.8l1.2-9.2c0.7-1.2,0.2-2.8,0.9-4.1l-0.2-0.2c-1.2,1.2-1.2,3.9-2.1,5.8c-1.8,5.3-3,11.3-6.2,15.7
		c-0.7,0.2-1.6,0-2.3-0.2c-1.4-1.2-0.7-3.5-0.5-5.3c1.2-3,2.8-5.8,3.9-9c2.1-6.2,3.2-12.9,7.6-17.5c0.9-0.5,2.3-1.4,3.5-0.5
		C279.3,68.2,279.7,69.4,280.7,70.3L280.7,70.3z"/>
	<path class="st0" d="M187.8,71.2c-0.5,2.1-2.5,2.5-3.7,3.9c-0.9,0.9-1.6,1.6-2.5,2.1c-0.9,0-2.5,0.2-3.5-0.2
		c-0.5-1.4,1.4-1.4,2.3-1.8c1.2-0.9,2.1-2.5,3.5-3.2C185.1,71.7,186.2,71.2,187.8,71.2L187.8,71.2z"/>
	<path class="st0" d="M253.7,73.3c0.7,3.9-0.5,8.3-3.2,10.4c-2.5,0.9-4.6,3-7.6,2.8l-0.5-0.9c0.9-3.2,1.8-6.4,1.6-10.4
		c0.5-0.9,1.4-0.9,1.8-0.5c0.9,1.2,1.2,2.5,1.6,3.9c1.4-0.5,1.4-1.8,1.4-3c0.2-1.4,0.5-3,1.4-3.9c0.9-0.2,1.4-0.2,2.1,0.2
		C253.2,72.1,253.2,73.1,253.7,73.3L253.7,73.3z"/>
	<path class="st0" d="M159.3,76.1c0.9,0.9,0,2.3-0.5,3c-1.4,1.4-3.2,2.3-5.5,1.8c0-2.3-0.9-4.1-0.7-6.4c0.2-0.2,0.7-0.7,0.9-0.7
		C155.8,73.8,158.1,74.2,159.3,76.1L159.3,76.1z"/>
	<path class="st0" d="M146.6,81.1c0.5,0.7,0,1.4,0,2.3c-0.2,0-0.9,0-1.2,0c-1.2-2.1-0.2-4.6,0.7-6.2c0.2-0.5,0.2,0,0.5,0V81.1
		L146.6,81.1z"/>
	<path class="st0" d="M185.5,92.6c2.5,0,3.9,1.6,6.7,1.2c2.1-1.8,4.4-3.7,7.8-3c2.1,0.5,3,2.8,4.8,3.7c2.1,1.2,4.1,2.3,6,3.9
		c0.2,0.5,0.5,1.6-0.2,1.8c-2.5,1.6-5.8-0.2-8.1-1.2c-4.8-1.4-10.4-1.8-15.7-3c-1.8,0-0.5,3-1.2,4.1c-1.4,2.1-2.8,4.8-5.3,5.8
		c0,0.7-0.2,1.2,0.5,1.4c3.5-0.7,8.5-0.2,9.7-3.9c0.7-0.7,1.2-1.2,2.3-1.2c1.2,0.7,2.8,0.5,3.5,1.6c-0.7,1.4-2.1,1.8-2.8,3.2
		c-1.2,3.7-4.8,4.8-7.6,6.2c-3,0.7-6,3-9.4,1.8v-0.9c1.8-1.2,4.4-1.2,6.2-2.8v-0.2c-1.6,0.2-3,1.2-4.8,0.9c-0.9,0.2-1.6-0.2-2.3,0
		c-4.1-0.2-7.6-1.6-11.7-1.6c-4.8-0.5-9.7-1.4-14.5-1.8c-3.5-0.9-7.4-1.6-8.8-4.8c-0.5-1.6-1.6-3.7-0.5-5.3c1.2,0.7,1.2,2.1,1.8,3
		c3,3.5,8.5,0.9,13.6,2.1c2.8,0.9,5.3,1.8,7.1,3.9c0.7,0.5,1.8,0.7,2.3,1.4c1.2,0.2,3,0.2,4.1,0c0.5-0.9-0.7-0.7-0.9-1.2
		c-3-1.6-5.1-4.6-5.1-8.3c0-4.8,2.1-8.8,6-10.6c2.5-1.6,8.1-2.5,10.8-0.7C182.3,89.4,183.2,91.7,185.5,92.6L185.5,92.6z"/>
	<path class="st0" d="M161.6,87.8c0,2.1-1.6,3-1.4,5.3c0,0.9,0.5,2.3,0,3c-2.1,0.7-3.5-0.9-5.8-0.7c-2.1,0.5-3.9,3.2-6,0.9
		c-0.5-0.7-0.2-1.6,0.5-1.8c2.1-1.6,5.8-0.7,7.6-2.8c1.4-1.4,2.1-3.2,4.1-4.1L161.6,87.8L161.6,87.8z"/>
	<path class="st0" d="M147.5,91c-0.5,1.4-1.4,3.2-3,3.7c-0.9,0.2-1.4-0.5-1.6-0.9c-0.5-2.5,2.8-2.3,3.5-4.4
		C147.7,88.5,147.3,90.3,147.5,91L147.5,91z"/>
	<path class="st1" d="M180.5,92.9c1.6,2.1,2.1,6.4,0.5,8.8c-1.8,2.1-3.9,4.6-7.6,4.1c-2.1,0.2-4.1-0.2-5.5-1.6
		c-1.4-1.8-2.3-4.1-1.8-6.7c0.7-3.2,3.7-5.3,6.2-6.7C175.6,90.3,178.8,90.8,180.5,92.9L180.5,92.9z"/>
	<path class="st0" d="M178.4,93.1c-0.2,0.7,0.9,0.9,0.2,1.6c-3-0.7-7.4-0.5-9.7,1.2c-0.7-1.6,1.2-2.1,1.8-2.8
		C172.6,92,176.5,91.3,178.4,93.1L178.4,93.1z"/>
	<path class="st0" d="M280.4,98.9c0,5.8-2.1,9.9-3.5,14.3c-0.5,0.9-0.9,2.8-2.1,1.6c-1.4-2.3,0-5.1,0.9-7.1c1.2-1.6,0.7-4.4,1.6-6.2
		c0.9-1.4,0.9-3.2,1.6-4.6C280.4,96.3,280.2,98.2,280.4,98.9L280.4,98.9z"/>
	<path class="st0" d="M238,97.5c2.3,0.2,4.4,0.7,6.7,0.9c1.4,0.5,1.2,2.1,1.2,3.2c-1.8,6-6,10.8-12.7,11.5c-1.2-0.2-0.9-1.6-0.9-2.8
		c1.2-2.3,0.2-5.5-1.2-7.6c-1.4-1.4-3.9-1.6-5.3-3.2c-0.2-0.5,0-1.2,0.5-1.4c3.2-1.2,7.1-0.9,10.8-0.9L238,97.5L238,97.5z"/>
	<path class="st0" d="M179.5,100.5c0,1.6-0.7,2.5-1.8,3.2c-1.8,0.9-4.8,1.8-6.9,0.7c-0.5-0.7-1.6-1.2-0.9-2.1c1.6,0,4.6,0.5,6-0.2
		C177,101.6,177.9,100,179.5,100.5L179.5,100.5z"/>
	<path class="st0" d="M229.5,103.5c1.6,1.2,1.6,3.2,1.4,5.5l-1.4,10.1c-0.5,2.5-1.2,4.8-1.6,7.1c-1.4,3.7-2.1,7.6-3.9,10.8
		c-1.8,2.3-4.1,4.4-4.1,8.1c0.2,0.7-0.9,0.5-1.2,0.2c-1.4-1.4-2.5-3.7-5.3-2.8c-2.1,0-3.7,1.8-5.5,0.9c-0.5-1.4,0.2-2.8,0-3.9
		c0.2-1.2,0.2-2.1,1.2-2.5c2.3-1.4,4.8-1.8,7.8-1.2c3.5,0.5,4.4-2.8,6-4.6c1.2-4.4,1.4-9.2,2.3-13.8c0.7-3.7,2.1-8.1,0.7-11.7
		c-0.2-1.2-1.8-1.4-3.2-1.6c-3.7,1.8-8.3,2.8-12.2,3.5c-1.8,0-2.5,1.4-3,2.5c-0.2,0.9,0.7,0.5,1.2,0.9c0.5,0.5,1.4,0.7,1.6,1.8
		c-1.2,1.6-2.5,3.5-4.6,4.4c-2.3,0.9-5.1,0.5-7.8,0.7c-1.2,0-3,0-3.5-1.4l0.2-0.7c4.4-2.3,8.1-5.3,10.1-9.7c2.3-1.6,5.3-2.1,8.1-3.2
		c3.7-1.8,10.6-3.2,14.7-0.7L229.5,103.5L229.5,103.5z"/>
	<path class="st0" d="M134.8,104.2c-0.2,0.5-0.2,0.7-0.7,1.2c-0.9,0.2-0.9,0-1.6-0.2c-0.5,0-0.5-0.9-0.2-1.4
		C133,103.2,134.4,103.2,134.8,104.2L134.8,104.2z"/>
	<path class="st0" d="M165.9,112.9c0,1.4-1.8,0.9-3,1.2c-3.7-0.2-7.1-0.5-9.7-1.8l0.2-0.7C157.9,111.5,161.8,112.5,165.9,112.9
		L165.9,112.9z"/>
	<path class="st0" d="M217.8,115.5c0.2,0.9,0,1.6-0.5,2.3c-1.4,0.5-3.7,0.9-5.3,0.2c-0.2-0.5-0.5-1.2,0-1.6
		C213.2,115,215.9,114.1,217.8,115.5L217.8,115.5z"/>
	<path class="st0" d="M274.4,120.8c0.9,0.7,1.6,1.6,2.1,2.5c0,1.6-2.1,1.2-3,1.8c-1.2,0.7-2.1,2.1-3.2,3c-0.7,0-0.9-0.7-0.9-1.4
		c0.2-1.8-0.7-3.9,0-5.8c0.2-1.2,0.9-2.3,2.1-3C273.1,118,273.5,119.8,274.4,120.8L274.4,120.8z"/>
	<path class="st0" d="M129.5,119.8c0.5,0.9-0.5,1.8-0.9,2.5c-0.7,0.2-1.8,0.5-2.3-0.2c-0.7-0.2-0.5-1.2-0.5-1.6
		C126.8,119.6,128.6,118.7,129.5,119.8L129.5,119.8z"/>
	<path class="st0" d="M265.7,123.7c0,0.9-0.2,1.6-0.9,1.6c-1.6-0.2-3,0.9-4.1-0.5c-0.7-2.1,1.4-3,2.3-4.4
		C264.8,120.8,265,122.4,265.7,123.7L265.7,123.7z"/>
	<path class="st0" d="M161.3,123.1c0.2,0.7,0,1.4-0.5,1.8c-0.7,0.9-1.4,0-2.1-0.5c-0.5-0.5,0-1.6,0.2-2.1
		C159.7,122.1,160.9,122.4,161.3,123.1L161.3,123.1z"/>
	<path class="st0" d="M216.4,128.4c0.2,1.6-0.2,2.8-0.9,3.7c-0.5,0.5-1.2,0-1.2-0.2c-0.5-1.2-0.9-2.5-0.2-3.5
		C214.3,127.9,216.2,127.2,216.4,128.4L216.4,128.4z"/>
	<path class="st0" d="M255.1,129c0.5,1.2-0.7,1.4-0.9,2.1c-0.5,0.5-1.4,0.7-2.3,0.2c-0.5-0.2-0.5-1.2-0.2-1.6
		C252.3,128.8,254.6,127.2,255.1,129L255.1,129z"/>
	<path class="st0" d="M291.2,129.7c0.2,0.9-0.2,1.4-0.7,1.6c-1.2,0.5-1.8-0.2-2.3-0.7c-0.5-0.5,0.2-0.9,0.2-1.4
		C289.2,128.4,291,128.6,291.2,129.7L291.2,129.7z"/>
	<path class="st0" d="M200.5,136.9c0,0.7,0.2,1.2-0.2,1.4c-1.8,0.2-3.5,0.5-4.8-0.2c-0.2-0.9-0.2-2.1,0.7-2.3
		C198.2,135.3,199.1,136.2,200.5,136.9L200.5,136.9z"/>
	<path class="st0" d="M266.4,140.1c0.2,0.9,0.2,0.9-0.2,1.4c-0.5,0.7-1.4,1.2-2.3,0.7c-0.2-0.5-0.7-1.2-0.2-1.6
		C264.1,139.6,265.9,138.7,266.4,140.1L266.4,140.1z"/>
	<path class="st0" d="M196.6,155.1c0.2,0.7,0.2,2.1-0.7,2.5c-0.7,0.2-1.4,0.5-2.1-0.2c-0.7-0.9,0-1.8,0.5-2.5
		C194.7,153.5,196.3,154.4,196.6,155.1L196.6,155.1z"/>
	<path class="st0" d="M231.4,156c0.2,0.9-0.7,1.4-1.2,1.8c-1.2,0.5-1.6-0.7-2.5-1.2c-0.5-0.5-0.9-1.6,0-2.1
		C229.1,154.2,230.7,154.8,231.4,156L231.4,156z"/>
</g>
</svg>
