<?xml version="1.0" encoding="utf-8"?>
<!-- Generator: Adobe Illustrator 16.0.0, SVG Export Plug-In . SVG Version: 6.00 Build 0)  -->
<!DOCTYPE svg PUBLIC "-//W3C//DTD SVG 1.1//EN" "http://www.w3.org/Graphics/SVG/1.1/DTD/svg11.dtd">
<svg version="1.1" id="Calque_1" xmlns="http://www.w3.org/2000/svg" xmlns:xlink="http://www.w3.org/1999/xlink" x="0px" y="0px"
	 width="250px" height="125px" viewBox="172.639 358.446 250 125" enable-background="new 172.639 358.446 250 125"
	 xml:space="preserve">
<rect x="172.639" y="358.446" fill="#4EAC3A" width="250" height="125"/>
<g>
	<path fill="#FFFFFF" d="M316.509,393.982c3.037-0.119,5.357-1.37,8.096-1.905c3.035-0.416,2.857,3.035,5.238,3.452
		c0.298,0.417,0.833,0.715,1.25,1.071c0.298,1.071,0.535,2.202,0.535,3.452c0.417,0.298,0.834,0.298,1.251,0
		c1.667-1.25,2.44-4.404,5.356-2.856c1.488,1.071,3.988,1.904,3.453,4.821c-0.417,1.904-1.369,3.452-0.952,5.893
		c-0.417,5.238,0.535,10.715-1.072,15.06c-0.535,2.44-3.036,6.429-0.298,8.513c1.905,1.249,3.69,2.439,6.19,2.737
		c0.834,0.298,1.488,0.536,1.786,1.488c0,0.953-0.715,1.488-1.369,1.905c-2.202-0.119-2.619-2.44-4.643-2.738
		c-1.37-0.715-4.107-0.715-5.477,0.118c-2.321,1.25-2.857,3.988-3.81,6.31c-0.119,1.071,0,1.488-0.715,2.084
		c-0.535,0.297-1.368,0.833-2.202,0.416c-0.417-0.119-0.297-0.714-0.417-0.953c0.536-1.368,1.489-2.32,2.084-3.809
		c0.119-0.952,0.952-1.785,0.535-3.036c-0.297-0.833-1.071-1.369-1.785-1.667c-1.25-0.118-3.036-0.118-3.571,0.834
		c-0.834,0.952-1.488,2.202-3.036,2.44c-0.535-0.417-1.25-0.417-1.488-1.25c0-0.953,0.953-1.251,1.488-1.786
		c1.786-1.369,4.226-2.202,4.644-4.821c-0.298-0.536-0.536-0.833-1.072-1.071c-1.786-0.834-3.155,1.488-4.643,0
		c-0.119-1.488,1.904-1.488,1.369-3.036c-0.953-0.952-0.953-2.44-2.084-3.155c-0.833-0.297-1.071,0.298-1.488,0.536
		c-1.487,1.25-3.035,2.083-4.82,2.738c-1.369,0.535-2.857,1.071-4.227,1.785l-0.416,0.715c-1.072,4.821-1.667,10-4.524,13.571
		c-0.416,1.071-0.952,2.083-0.535,3.452c0.535,2.44,2.738,4.107,5.06,4.821c0.535,0.417,0.953,0.833,1.25,1.369
		c-0.417,0.833-1.25,1.25-2.202,1.369c-1.25-0.417-2.083-1.488-2.857-2.321c-3.036-1.904-6.012-5.773-10.714-3.571
		c-1.786,1.369-4.107,2.202-5.238,4.226c-0.297,0.833-0.417,1.786-1.25,2.203c-0.714,0.297-1.488,0.118-1.904-0.119
		c-0.536-1.667,0.714-2.738,1.25-3.988c1.666-2.083,5.357-2.441,5.774-5.773c-0.12-0.715-0.417-1.251-0.953-1.667
		c-1.667-0.536-3.273,0-5.059,0c-0.536-0.298-1.667,0-1.488-0.953c0.953-1.369,2.619-2.44,4.821-1.904c1.667,0.833,3.809,0,5.595,0
		c0.536-0.416,1.667-0.416,1.786-1.25c0-1.071-0.297-2.619,0.298-3.452c0.535-1.251,2.857-0.417,3.036-2.084
		c0-0.952,0.535-1.904-0.416-2.321c-2.441-0.119-4.941-0.417-7.56-0.535c-3.274-0.119-6.607-0.417-9.762-0.953
		c-2.322,0.119-4.405,0.953-6.964,0.536c-2.619-0.298-4.644-1.251-7.381-1.489c-0.417,0.12-0.833,0.12-1.071,0.536
		c-0.715,1.786,0.535,3.036,0.713,4.524c-0.119,0.833-1.071,1.071-1.667,1.368c-0.536-0.118-1.071-0.297-1.369-0.833
		c-0.833-1.071,0.417-2.44-0.297-3.69c-0.12-0.952-0.12-2.202-1.072-2.44c-1.667-0.536-3.453-0.833-4.821-1.488
		c-1.905-0.416-2.857,0.952-4.107,1.786l-4.94,2.32c-1.25,0.834-1.489,2.322-2.738,2.858c-1.072,0.119-1.369-0.715-2.083-1.072
		c-0.417-1.786,1.488-2.321,2.619-3.154c1.786-0.953,3.572-2.084,5.357-2.738c0.714-0.833,2.202-1.251,1.786-2.738
		c-0.536-0.715-1.072-1.25-2.203-1.25c-0.953,0-1.667,0.833-2.619,0.535c-0.714-0.535-1.667-0.952-1.488-2.084
		c0.714-2.083,5.238,0.298,4.821-3.035c0.417-2.857,2.321-4.643,3.036-7.262c-0.714-1.668-1.25-4.405,0-6.013
		c1.071-1.487,2.738-1.904,4.107-2.856c1.369-0.417,2.738,0.119,4.226,0.119c1.667,1.666,4.821,1.071,7.381,1.25l3.155-0.12
		c0.833-0.416,1.786-0.535,2.441-1.071l0.357-0.178c3.155-1.667,6.429-3.036,9.762-4.644c1.071-0.416,2.44-0.298,3.453-0.833
		c3.809-1.487,7.261-3.571,12.203-3.036C309.128,392.612,312.52,393.863,316.509,393.982L316.509,393.982z"/>
	<path fill="#4EAC3A" d="M326.271,393.565c0.118,0.298,0.118,0.833,0,0.952c-1.251,0.417-2.857,0.119-3.69-0.298
		c0.119-0.714,0.952-0.833,1.666-0.952C324.902,393.326,325.735,393.148,326.271,393.565L326.271,393.565z"/>
	<path fill="#4EAC3A" d="M299.366,396.481c-0.535,0.953-1.667,1.25-2.44,2.083l-4.941,1.905c-0.833,0.298-1.904,0.715-2.857,0.417
		c-0.119-0.952,0.953-1.25,1.488-1.905c2.322-1.487,5.477-1.904,8.096-2.856C299.128,396.065,299.366,396.183,299.366,396.481
		L299.366,396.481z"/>
	<path fill="#4EAC3A" d="M326.925,396.719c0.417,0.536,1.072,1.071,0.536,1.905c-0.714,0.714-1.785,1.487-2.857,0.952
		c-1.071-0.715-1.785-1.667-2.44-2.738c-0.119-0.417,0.298-0.417,0.417-0.535C324.187,396.183,325.556,396.481,326.925,396.719
		L326.925,396.719z"/>
	<path fill="#4EAC3A" d="M314.603,398.386c-0.297,2.44,2.322,5.059,0,6.845c-1.785,2.321-4.643,3.036-7.678,3.572
		c-3.155-0.119-4.227-2.857-6.429-4.227c-0.715-0.298-1.071-1.071-0.833-2.083c-1.489-0.417-2.084,1.369-2.858,2.083
		c-1.786,0.833-4.405,0.536-6.428,0.952c-1.786,0.119-3.571,0.417-5.357,0.535c-0.953,0.298-1.488,0.715-2.619,0.715
		c-0.298-0.417,0.417-0.715,0.535-1.071l2.738-1.25l5.06-1.25c1.786-0.119,3.273-0.834,4.523-1.488
		c2.083-1.071,4.643-1.487,6.606-2.738c3.036-1.25,6.964-1.071,10.715-0.952C313.235,397.851,314.187,397.671,314.603,398.386
		L314.603,398.386z"/>
	<path fill="#4EAC3A" d="M339.723,400.29c0.535,1.786-0.536,3.036-0.536,4.644l-0.833,5.595c-0.297,2.619-0.833,5.238-1.487,7.56
		c-1.072,2.202-1.668,4.524-3.274,6.19c-1.369,2.202-3.69,3.274-6.846,2.857c-1.488-0.416-2.738-1.369-3.273-2.857l0.297-0.417
		c0.715-0.118,0.953,0.417,1.488,0.715c1.072,0.119,2.857,0.833,3.572-0.298c-0.715-1.488-2.738-1.785-3.453-3.452
		c-1.666-2.619-0.535-6.846-0.119-9.881c0.417-1.666,0.834-3.155,1.488-4.523c0.536-1.905,1.488-3.81,3.155-4.821
		c0.535,0,0.833,0.297,0.952,0.417c-0.416,3.987-2.321,6.726-2.738,10.535l-0.714,4.643c0.298,1.905,2.202,2.322,3.036,3.81
		c0.416,0.298,0.953,0.119,1.488-0.118c1.071-0.536,1.25-1.786,1.666-2.857c0.417-1.488,0.833-3.155,1.072-4.643l0.714-5.477
		c0.417-0.715,0.119-1.667,0.535-2.441l-0.119-0.118c-0.714,0.714-0.714,2.321-1.249,3.452c-1.072,3.154-1.786,6.726-3.691,9.345
		c-0.416,0.12-0.952,0-1.369-0.118c-0.833-0.715-0.416-2.084-0.298-3.155c0.715-1.785,1.667-3.453,2.321-5.357
		c1.251-3.69,1.905-7.679,4.524-10.417c0.535-0.297,1.369-0.833,2.083-0.297C338.89,399.04,339.128,399.755,339.723,400.29
		L339.723,400.29z"/>
	<path fill="#4EAC3A" d="M284.425,400.826c-0.297,1.25-1.488,1.488-2.202,2.321c-0.536,0.535-0.953,0.953-1.488,1.25
		c-0.536,0-1.488,0.119-2.083-0.119c-0.297-0.833,0.833-0.833,1.369-1.071c0.714-0.535,1.25-1.487,2.083-1.904
		C282.819,401.124,283.473,400.826,284.425,400.826L284.425,400.826z"/>
	<path fill="#4EAC3A" d="M323.651,402.076c0.417,2.321-0.298,4.94-1.904,6.19c-1.488,0.535-2.738,1.786-4.523,1.667l-0.298-0.536
		c0.536-1.904,1.071-3.81,0.952-6.19c0.298-0.535,0.834-0.535,1.072-0.297c0.535,0.714,0.714,1.487,0.952,2.32
		c0.833-0.297,0.833-1.071,0.833-1.785c0.119-0.833,0.298-1.786,0.833-2.321c0.536-0.119,0.834-0.119,1.251,0.119
		C323.353,401.362,323.353,401.957,323.651,402.076L323.651,402.076z"/>
	<path fill="#4EAC3A" d="M267.461,403.742c0.536,0.536,0,1.37-0.298,1.786c-0.833,0.833-1.905,1.369-3.274,1.071
		c0-1.369-0.536-2.44-0.417-3.81c0.119-0.119,0.417-0.417,0.536-0.417C265.378,402.373,266.746,402.612,267.461,403.742
		L267.461,403.742z"/>
	<path fill="#4EAC3A" d="M259.902,406.719c0.297,0.417,0,0.833,0,1.369c-0.12,0-0.536,0-0.714,0c-0.715-1.25-0.119-2.738,0.417-3.69
		c0.119-0.297,0.119,0,0.298,0V406.719L259.902,406.719z"/>
	<path fill="#4EAC3A" d="M283.056,413.565c1.489,0,2.321,0.952,3.988,0.714c1.25-1.071,2.619-2.202,4.643-1.785
		c1.25,0.297,1.786,1.666,2.857,2.202c1.25,0.714,2.44,1.369,3.571,2.321c0.119,0.297,0.298,0.952-0.119,1.071
		c-1.488,0.952-3.452-0.119-4.821-0.714c-2.857-0.833-6.19-1.072-9.346-1.786c-1.072,0-0.298,1.786-0.714,2.44
		c-0.833,1.25-1.667,2.857-3.155,3.452c0,0.417-0.119,0.715,0.298,0.834c2.083-0.417,5.06-0.119,5.774-2.321
		c0.417-0.417,0.714-0.715,1.369-0.715c0.714,0.417,1.667,0.298,2.083,0.953c-0.417,0.833-1.25,1.071-1.667,1.904
		c-0.714,2.202-2.857,2.857-4.523,3.69c-1.786,0.417-3.571,1.786-5.595,1.071v-0.535c1.071-0.715,2.619-0.715,3.69-1.667v-0.119
		c-0.953,0.119-1.786,0.715-2.857,0.536c-0.535,0.119-0.953-0.119-1.369,0c-2.441-0.119-4.524-0.953-6.964-0.953
		c-2.857-0.298-5.774-0.833-8.632-1.071c-2.083-0.536-4.404-0.952-5.238-2.857c-0.297-0.952-0.953-2.202-0.297-3.154
		c0.714,0.416,0.714,1.25,1.071,1.786c1.786,2.083,5.06,0.535,8.095,1.25c1.667,0.535,3.155,1.071,4.226,2.321
		c0.417,0.298,1.072,0.416,1.37,0.833c0.714,0.118,1.786,0.118,2.44,0c0.298-0.535-0.417-0.417-0.536-0.715
		c-1.786-0.952-3.036-2.738-3.036-4.94c0-2.856,1.25-5.238,3.571-6.309c1.488-0.953,4.821-1.488,6.428-0.417
		C281.152,411.659,281.687,413.029,283.056,413.565L283.056,413.565z"/>
	<path fill="#4EAC3A" d="M268.83,410.707c0,1.25-0.952,1.786-0.833,3.155c0,0.535,0.298,1.369,0,1.785
		c-1.25,0.417-2.083-0.535-3.453-0.416c-1.25,0.297-2.321,1.904-3.571,0.535c-0.298-0.417-0.119-0.953,0.297-1.071
		c1.25-0.953,3.453-0.417,4.524-1.667c0.833-0.833,1.25-1.905,2.441-2.44L268.83,410.707L268.83,410.707z"/>
	<path fill="#4EAC3A" d="M260.438,412.613c-0.298,0.833-0.833,1.904-1.786,2.202c-0.536,0.119-0.833-0.298-0.953-0.535
		c-0.298-1.488,1.667-1.37,2.083-2.619C260.556,411.124,260.319,412.196,260.438,412.613L260.438,412.613z"/>
	<path fill="#FFFFFF" d="M280.08,413.742c0.953,1.251,1.25,3.811,0.298,5.238c-1.071,1.251-2.321,2.738-4.523,2.441
		c-1.25,0.119-2.441-0.119-3.274-0.952c-0.833-1.072-1.37-2.441-1.072-3.988c0.417-1.905,2.202-3.155,3.69-3.988
		C277.163,412.196,279.068,412.493,280.08,413.742L280.08,413.742z"/>
	<path fill="#4EAC3A" d="M278.83,413.863c-0.119,0.416,0.536,0.535,0.119,0.952c-1.786-0.416-4.405-0.298-5.774,0.714
		c-0.417-0.952,0.714-1.25,1.071-1.666C275.378,413.207,277.699,412.79,278.83,413.863L278.83,413.863z"/>
	<path fill="#4EAC3A" d="M339.545,417.315c0,3.452-1.251,5.893-2.083,8.512c-0.298,0.536-0.536,1.667-1.251,0.953
		c-0.833-1.369,0-3.036,0.536-4.227c0.714-0.952,0.417-2.619,0.952-3.69c0.536-0.833,0.536-1.904,0.953-2.738
		C339.545,415.767,339.426,416.898,339.545,417.315L339.545,417.315z"/>
	<path fill="#4EAC3A" d="M314.306,416.482c1.369,0.118,2.619,0.416,3.988,0.535c0.833,0.297,0.714,1.25,0.714,1.904
		c-1.071,3.571-3.571,6.429-7.56,6.846c-0.714-0.119-0.536-0.952-0.536-1.667c0.715-1.369,0.119-3.274-0.714-4.523
		c-0.833-0.833-2.321-0.952-3.155-1.905c-0.118-0.297,0-0.714,0.298-0.833c1.905-0.714,4.227-0.535,6.43-0.535L314.306,416.482
		L314.306,416.482z"/>
	<path fill="#4EAC3A" d="M279.485,418.267c0,0.952-0.417,1.488-1.071,1.904c-1.072,0.536-2.857,1.071-4.107,0.417
		c-0.297-0.417-0.952-0.715-0.535-1.25c0.952,0,2.738,0.298,3.571-0.119C277.997,418.921,278.533,417.969,279.485,418.267
		L279.485,418.267z"/>
	<path fill="#4EAC3A" d="M309.247,420.053c0.953,0.713,0.953,1.904,0.833,3.273l-0.833,6.012c-0.297,1.488-0.714,2.857-0.952,4.226
		c-0.834,2.202-1.251,4.524-2.321,6.429c-1.072,1.369-2.44,2.619-2.44,4.821c0.118,0.417-0.536,0.298-0.715,0.119
		c-0.833-0.833-1.488-2.202-3.154-1.667c-1.251,0-2.203,1.072-3.274,0.536c-0.297-0.833,0.119-1.667,0-2.321
		c0.119-0.715,0.119-1.25,0.714-1.488c1.369-0.833,2.857-1.072,4.643-0.715c2.083,0.298,2.619-1.666,3.571-2.737
		c0.714-2.619,0.833-5.477,1.369-8.215c0.417-2.202,1.25-4.821,0.417-6.964c-0.119-0.715-1.072-0.834-1.905-0.953
		c-2.202,1.071-4.94,1.667-7.261,2.083c-1.072,0-1.488,0.834-1.786,1.488c-0.119,0.536,0.416,0.298,0.713,0.536
		c0.298,0.298,0.833,0.417,0.953,1.071c-0.714,0.952-1.488,2.083-2.739,2.619c-1.369,0.535-3.035,0.298-4.643,0.416
		c-0.714,0-1.786,0-2.083-0.833l0.119-0.417c2.619-1.368,4.821-3.154,6.012-5.773c1.37-0.952,3.155-1.25,4.821-1.904
		c2.203-1.071,6.31-1.905,8.75-0.417L309.247,420.053L309.247,420.053z"/>
	<path fill="#4EAC3A" d="M252.878,420.47c-0.12,0.297-0.12,0.416-0.417,0.714c-0.536,0.119-0.536,0-0.953-0.119
		c-0.298,0-0.298-0.535-0.119-0.833C251.806,419.874,252.64,419.874,252.878,420.47L252.878,420.47z"/>
	<path fill="#4EAC3A" d="M271.39,425.648c0,0.833-1.072,0.536-1.786,0.715c-2.202-0.119-4.226-0.298-5.773-1.071l0.119-0.417
		C266.628,424.815,268.949,425.409,271.39,425.648L271.39,425.648z"/>
	<path fill="#4EAC3A" d="M302.283,427.196c0.119,0.535,0,0.952-0.298,1.369c-0.833,0.298-2.202,0.535-3.154,0.119
		c-0.119-0.298-0.298-0.715,0-0.953C299.545,426.898,301.151,426.363,302.283,427.196L302.283,427.196z"/>
	<path fill="#4EAC3A" d="M335.972,430.35c0.536,0.417,0.953,0.953,1.251,1.488c0,0.953-1.251,0.715-1.786,1.071
		c-0.714,0.417-1.25,1.251-1.904,1.786c-0.417,0-0.536-0.416-0.536-0.833c0.119-1.071-0.416-2.321,0-3.452
		c0.119-0.715,0.536-1.37,1.251-1.786C335.199,428.684,335.437,429.755,335.972,430.35L335.972,430.35z"/>
	<path fill="#4EAC3A" d="M249.723,429.755c0.297,0.535-0.298,1.071-0.536,1.488c-0.417,0.118-1.072,0.298-1.369-0.119
		c-0.417-0.119-0.297-0.714-0.297-0.952C248.115,429.636,249.187,429.1,249.723,429.755L249.723,429.755z"/>
	<path fill="#4EAC3A" d="M330.795,432.076c0,0.535-0.119,0.952-0.536,0.952c-0.952-0.119-1.785,0.536-2.44-0.298
		c-0.417-1.249,0.833-1.785,1.369-2.618C330.259,430.35,330.378,431.303,330.795,432.076L330.795,432.076z"/>
	<path fill="#4EAC3A" d="M268.651,431.719c0.119,0.417,0,0.834-0.297,1.072c-0.417,0.535-0.833,0-1.25-0.298
		c-0.298-0.298,0-0.952,0.119-1.25C267.699,431.124,268.413,431.303,268.651,431.719L268.651,431.719z"/>
	<path fill="#4EAC3A" d="M301.45,434.874c0.118,0.952-0.12,1.666-0.536,2.201c-0.298,0.298-0.715,0-0.715-0.118
		c-0.297-0.715-0.535-1.488-0.118-2.083C300.199,434.576,301.33,434.159,301.45,434.874L301.45,434.874z"/>
	<path fill="#4EAC3A" d="M324.485,435.231c0.298,0.715-0.417,0.834-0.535,1.25c-0.298,0.299-0.833,0.417-1.369,0.119
		c-0.298-0.119-0.298-0.714-0.119-0.952C322.818,435.113,324.187,434.159,324.485,435.231L324.485,435.231z"/>
	<path fill="#4EAC3A" d="M345.973,435.648c0.119,0.535-0.119,0.833-0.417,0.952c-0.714,0.298-1.071-0.118-1.369-0.416
		c-0.297-0.297,0.119-0.535,0.119-0.833C344.783,434.874,345.854,434.993,345.973,435.648L345.973,435.648z"/>
	<path fill="#4EAC3A" d="M291.985,439.934c0,0.416,0.119,0.714-0.119,0.833c-1.072,0.119-2.083,0.297-2.857-0.119
		c-0.119-0.536-0.119-1.25,0.417-1.369C290.615,438.982,291.152,439.517,291.985,439.934L291.985,439.934z"/>
	<path fill="#4EAC3A" d="M331.211,441.838c0.119,0.535,0.119,0.535-0.118,0.833c-0.298,0.417-0.834,0.715-1.369,0.417
		c-0.119-0.298-0.417-0.715-0.119-0.952C329.843,441.54,330.913,441.005,331.211,441.838L331.211,441.838z"/>
	<path fill="#4EAC3A" d="M289.664,450.767c0.119,0.417,0.119,1.25-0.417,1.488c-0.417,0.119-0.833,0.298-1.25-0.119
		c-0.417-0.535,0-1.071,0.298-1.488C288.532,449.815,289.485,450.35,289.664,450.767L289.664,450.767z"/>
	<path fill="#4EAC3A" d="M310.378,451.302c0.119,0.536-0.416,0.833-0.714,1.072c-0.714,0.298-0.952-0.417-1.488-0.715
		c-0.298-0.297-0.535-0.952,0-1.25C309.009,450.231,309.962,450.588,310.378,451.302L310.378,451.302z"/>
</g>
</svg>
