<?xml version="1.0" encoding="utf-8"?>
<!-- Generator: Adobe Illustrator 19.1.0, SVG Export Plug-In . SVG Version: 6.00 Build 0)  -->
<svg version="1.1" id="Calque_1" xmlns="http://www.w3.org/2000/svg" xmlns:xlink="http://www.w3.org/1999/xlink" x="0px" y="0px"
	 viewBox="0 0 356.2 355" style="enable-background:new 0 0 356.2 355;" xml:space="preserve">
<style type="text/css">
	.st0{fill:#F9B233;}
	.st1{fill:#EA5B0C;}
</style>
<g>
	<g>
		<g>
			<path class="st0" d="M203,237.3l1.5,2.7c6.9,12.8,10.9,27.4,10.9,42.9c0,4.3-0.3,8.4-0.9,12.5c42.3-44.7,74-99.7,90.8-160.8
				c-10.8-34.6-42.1-60.5-79.6-63.1l-0.6-0.1c-5.7-0.7-11-3-15.3-6.3l-0.2-0.1c0,0-3.2,3.4-7.4,10.4c-12.2,20.2-19.5,50.4-19.5,80.3
				C182.7,185.1,190,212.9,203,237.3z M230,107.1c22.3,0,40.4,18.1,40.4,40.4c0,22.3-18.1,40.4-40.4,40.4
				c-22.3,0-40.4-18.1-40.4-40.4C189.7,125.2,207.7,107.1,230,107.1z"/>
			<path class="st1" d="M230,190.5c23.8,0,43-19.3,43-43c0-23.7-19.3-43-43-43c-23.7,0-43,19.3-43,43
				C187,171.3,206.3,190.5,230,190.5z M230,107.1c22.3,0,40.4,18.1,40.4,40.4c0,22.3-18.1,40.4-40.4,40.4
				c-22.3,0-40.4-18.1-40.4-40.4C189.7,125.2,207.7,107.1,230,107.1z"/>
			<path class="st0" d="M142.3,295.4c-0.6-4.1-0.9-8.3-0.9-12.5c0-15.5,3.9-30.1,10.9-42.9l1.5-2.7c13-24.3,20.3-52.1,20.3-81.7
				c0-29.8-7.4-60.1-19.6-80.3c-4.2-6.9-7.4-10.4-7.4-10.4l-0.1,0.1c-4.3,3.4-9.6,5.6-15.3,6.3l-0.6,0.1
				c-37.5,2.6-68.8,28.5-79.6,63.1C68.4,195.8,100,250.7,142.3,295.4z M126.8,107.1c22.3,0,40.4,18.1,40.4,40.4
				c0,22.3-18.1,40.4-40.4,40.4c-22.3,0-40.4-18.1-40.4-40.4C86.4,125.2,104.5,107.1,126.8,107.1z"/>
			<path class="st1" d="M126.8,190.5c23.7,0,43-19.3,43-43c0-23.7-19.2-43-43-43c-23.8,0-43,19.3-43,43
				C83.8,171.3,103,190.5,126.8,190.5z M126.8,107.1c22.3,0,40.4,18.1,40.4,40.4c0,22.3-18.1,40.4-40.4,40.4
				c-22.3,0-40.4-18.1-40.4-40.4C86.4,125.2,104.5,107.1,126.8,107.1z"/>
			<g>
				<path class="st0" d="M151.6,290.5c-0.6,2-1.1,4-1.4,6c7.9,5.6,17.6,8.8,28,8.8c10.4,0,20.1-3.3,28-8.8c-0.3-2-0.7-4-1.4-6
					c-1.7,0.3-4.5-1-7-3.4c-3.1-3-4.6-6.5-3.4-7.8c0.8-0.9,2.6-0.6,4.6,0.5c-5.1-6.5-12.5-11-20.7-11c-8.2,0-15.6,4.5-20.7,11
					c2-1.1,3.7-1.3,4.6-0.5c1.3,1.3-0.2,4.8-3.4,7.8C156.1,289.6,153.2,290.9,151.6,290.5z"/>
				<path class="st0" d="M175.3,261.3c2.3,0.5,2.5,1.5,2.5,1.5l0.3,5.9l0.5-5.9c0,0,0.1-1,2.4-1.5c2.3-0.5,9.9,0.8,9.9,0.8
					s-9.2-2.9-12.8-2.9c-3.7,0-12.8,2.9-12.8,2.9S173,260.9,175.3,261.3z"/>
			</g>
			<path class="st0" d="M121.4,171.6c-0.9-1.7-1.5-3.6-1.7-5.6c-0.3-3.5,0.8-6.7,2.7-9.3c-0.1,0-0.3,0-0.4,0c-2.6,0-4.8-2.1-4.8-4.8
				s2.1-4.7,4.8-4.7c2.6,0,4.7,2.1,4.7,4.7c0,0.3,0,0.6-0.1,0.9c1.7-1,3.7-1.7,5.8-1.9c6.9-0.6,13,4,14.6,10.5l0,0l0,0l0,0v0
				c2.7-3.9,4.3-8.7,4.4-13.9l-2.8,8.8l2.8-8.8c0.1-13.6-10.9-24.7-24.5-24.8c-13.6-0.1-24.7,10.9-24.8,24.5
				C102,159.2,110.3,169.2,121.4,171.6z"/>
			<path class="st0" d="M207.4,157.1c2,4.7,5.3,8.5,9.4,11.1c-1-6.6,2.9-13.2,9.4-15.3c2-0.6,3.9-0.8,5.9-0.6c0-0.1,0-0.3,0-0.4
				c0-2.6,2.1-4.7,4.8-4.7c2.6,0,4.7,2.1,4.7,4.7c0,1.5-0.7,2.9-1.9,3.8c1.8,1.6,3.3,3.7,4.1,6.1c0.6,1.9,0.8,3.9,0.6,5.8
				c9.3-6.5,13.2-18.9,8.6-29.8c-5.3-12.5-19.8-18.4-32.3-13.1C208,130.1,202.1,144.6,207.4,157.1z"/>
		</g>
	</g>
	<path class="st1" d="M178.4,6.7c94,0,170.4,76.5,170.4,170.4s-76.5,170.4-170.4,170.4C84.4,347.6,8,271.2,8,177.2
		S84.4,6.7,178.4,6.7z M178.4,343.6c91.8,0,166.5-74.7,166.5-166.5S270.2,10.7,178.4,10.7c-91.8,0-166.5,74.7-166.5,166.5
		S86.6,343.6,178.4,343.6z"/>
</g>
</svg>
