<?xml version="1.0" encoding="utf-8"?>
<!-- Generator: Adobe Illustrator 19.1.0, SVG Export Plug-In . SVG Version: 6.00 Build 0)  -->
<svg version="1.1" id="Calque_1" xmlns="http://www.w3.org/2000/svg" xmlns:xlink="http://www.w3.org/1999/xlink" x="0px" y="0px"
	 viewBox="0 0 355 355" style="enable-background:new 0 0 355 355;" xml:space="preserve">
<style type="text/css">
	.st0{fill:#03589C;}
	.st1{fill:#6BB3E4;}
</style>
<g>
	<g>
		<g>
			<path class="st0" d="M152.6,91.6l-1.5-2.7c-6.9-12.8-10.9-27.4-10.9-42.9c0-4.3,0.3-8.4,0.9-12.5c-42.3,44.7-74,99.7-90.8,160.8
				c10.8,34.6,42.1,60.5,79.6,63.1l0.6,0.1c5.7,0.7,11,3,15.3,6.3l0.2,0.1c0,0,3.2-3.4,7.4-10.4c12.2-20.2,19.5-50.4,19.5-80.3
				C172.9,143.7,165.5,115.9,152.6,91.6z M125.5,221.7c-22.3,0-40.4-18.1-40.4-40.4c0-22.3,18.1-40.4,40.4-40.4
				c22.3,0,40.4,18.1,40.4,40.4C165.9,203.6,147.8,221.7,125.5,221.7z"/>
			<path class="st1" d="M125.5,138.3c-23.8,0-43,19.3-43,43c0,23.7,19.3,43,43,43c23.7,0,43-19.3,43-43
				C168.5,157.6,149.3,138.3,125.5,138.3z M125.5,221.7c-22.3,0-40.4-18.1-40.4-40.4c0-22.3,18.1-40.4,40.4-40.4
				c22.3,0,40.4,18.1,40.4,40.4C165.9,203.6,147.8,221.7,125.5,221.7z"/>
			<path class="st0" d="M213.3,33.4c0.6,4.1,0.9,8.3,0.9,12.5c0,15.5-3.9,30.1-10.9,42.9l-1.5,2.7c-13,24.3-20.3,52.1-20.3,81.7
				c0,29.8,7.4,60.1,19.6,80.3c4.2,6.9,7.4,10.4,7.4,10.4l0.1-0.1c4.3-3.4,9.6-5.6,15.3-6.3l0.6-0.1c37.5-2.6,68.8-28.5,79.6-63.1
				C287.2,133.1,255.6,78.1,213.3,33.4z M228.8,221.7c-22.3,0-40.4-18.1-40.4-40.4c0-22.3,18.1-40.4,40.4-40.4
				c22.3,0,40.4,18.1,40.4,40.4C269.2,203.6,251.1,221.7,228.8,221.7z"/>
			<path class="st1" d="M228.8,138.3c-23.7,0-43,19.3-43,43c0,23.7,19.2,43,43,43c23.8,0,43-19.3,43-43
				C271.8,157.6,252.5,138.3,228.8,138.3z M228.8,221.7c-22.3,0-40.4-18.1-40.4-40.4c0-22.3,18.1-40.4,40.4-40.4
				c22.3,0,40.4,18.1,40.4,40.4C269.2,203.6,251.1,221.7,228.8,221.7z"/>
			<g>
				<path class="st0" d="M204,287.3c0.6-2,1.1-4,1.4-6c-7.9-5.6-17.6-8.8-28-8.8c-10.4,0-20.1,3.3-28,8.8c0.3,2,0.7,4,1.4,6
					c1.7-0.3,4.5,1,7,3.4c3.1,3,4.6,6.5,3.4,7.8c-0.8,0.9-2.6,0.6-4.6-0.5c5.1,6.5,12.5,11,20.7,11c8.2,0,15.6-4.5,20.7-11
					c-2,1.1-3.7,1.3-4.6,0.5c-1.3-1.3,0.2-4.8,3.4-7.8C199.5,288.3,202.4,287,204,287.3z"/>
				<path class="st0" d="M180.2,316.5c-2.3-0.5-2.5-1.5-2.5-1.5l-0.3-5.9l-0.5,5.9c0,0-0.1,1-2.4,1.5c-2.3,0.5-9.9-0.8-9.9-0.8
					s9.2,2.9,12.8,2.9c3.7,0,12.8-2.9,12.8-2.9S182.6,317,180.2,316.5z"/>
			</g>
			<path class="st0" d="M234.1,157.2c0.9,1.7,1.5,3.6,1.7,5.6c0.3,3.5-0.8,6.7-2.7,9.3c0.1,0,0.3,0,0.4,0c2.6,0,4.8,2.1,4.8,4.8
				s-2.1,4.7-4.8,4.7c-2.6,0-4.7-2.1-4.7-4.7c0-0.3,0-0.6,0.1-0.9c-1.7,1-3.7,1.7-5.8,1.9c-6.9,0.6-13-4-14.6-10.5l0,0l0,0l0,0v0
				c-2.7,3.9-4.3,8.7-4.4,13.9l2.8-8.8l-2.8,8.8c-0.1,13.6,10.9,24.7,24.5,24.8c13.6,0.1,24.7-10.9,24.8-24.5
				C253.6,169.6,245.3,159.7,234.1,157.2z"/>
			<path class="st0" d="M148.2,171.7c-2-4.7-5.3-8.5-9.4-11.1c1,6.6-2.9,13.2-9.4,15.3c-2,0.6-3.9,0.8-5.9,0.6c0,0.1,0,0.3,0,0.4
				c0,2.6-2.1,4.7-4.8,4.7c-2.6,0-4.7-2.1-4.7-4.7c0-1.5,0.7-2.9,1.9-3.8c-1.8-1.6-3.3-3.7-4.1-6.1c-0.6-1.9-0.8-3.9-0.6-5.8
				c-9.3,6.5-13.2,18.9-8.6,29.8c5.3,12.5,19.8,18.4,32.3,13.1C147.6,198.8,153.5,184.3,148.2,171.7z"/>
		</g>
	</g>
	<path class="st0" d="M177.2,346.4C83.2,346.4,6.7,270,6.7,176S83.2,5.5,177.2,5.5c94,0,170.4,76.5,170.4,170.4
		S271.1,346.4,177.2,346.4z M177.2,9.5C85.4,9.5,10.7,84.2,10.7,176s74.7,166.5,166.5,166.5c91.8,0,166.5-74.7,166.5-166.5
		S269,9.5,177.2,9.5z"/>
</g>
</svg>
