<?xml version="1.0" encoding="utf-8"?>
<!-- Generator: Adobe Illustrator 18.1.1, SVG Export Plug-In . SVG Version: 6.00 Build 0)  -->
<svg version="1.1" id="Calque_1" xmlns="http://www.w3.org/2000/svg" xmlns:xlink="http://www.w3.org/1999/xlink" x="0px" y="0px"
	 viewBox="0 0 126.2 130" enable-background="new 0 0 126.2 130" xml:space="preserve">
<path fill="#F4DBA4" d="M9.2,20.5c2.5-3.8,8.1-4.6,12.6-1.7c0.4,0.3,0.9,0.6,1.2,1c-0.6-0.7-1.4-1.4-2.3-2c-4.4-2.9-10-2.1-12.6,1.7
	c-2.2,3.5-1.2,8.2,2.2,11.2C7.8,27.6,7.1,23.5,9.2,20.5z"/>
<path fill="#F4DBA4" d="M118.8,18.6c-2.5-3.8-8.1-4.6-12.6-1.7c-0.4,0.3-0.9,0.6-1.2,1c0.6-0.7,1.4-1.4,2.3-2
	c4.4-2.9,10-2.1,12.6,1.7c2.3,3.5,1.2,8.2-2.2,11.2C120.2,25.8,120.8,21.7,118.8,18.6z"/>
<path fill="#F4DBA4" d="M57,30.6l-0.6-1.1c-2.9-5.2-4.5-11.3-4.5-17.6c0-1.7,0.1-3.5,0.4-5.1c-17.4,18.4-30.4,41-37.3,66.1v0
	c4.4,14.2,17.3,24.9,32.7,26l0.2,0c2.4,0.3,4.5,1.2,6.3,2.6l0.1,0.1c0,0,1.3-1.4,3-4.3c5-8.3,8-20.7,8-33
	C65.4,52.1,62.3,40.6,57,30.6z M45.9,84.1c-9.2,0-16.6-7.4-16.6-16.6c0-9.2,7.4-16.6,16.6-16.6c9.2,0,16.6,7.4,16.6,16.6
	C62.5,76.7,55.1,84.1,45.9,84.1z"/>
<path fill="#F2F2F2" d="M51.3,59c0.4,2.7-1.2,5.4-3.9,6.3c-3,1-6.2-0.7-7.2-3.7C40,60.8,39.9,60,40,59.2c-3.8,2.7-5.4,7.8-3.5,12.3
	c2.2,5.2,8.1,7.6,13.3,5.4c5.2-2.2,7.6-8.1,5.4-13.3C54.4,61.6,53,60.1,51.3,59z"/>
<path fill="#F4DBA4" d="M82,5.9c0.2,1.7,0.4,3.4,0.4,5.1c0,6.4-1.6,12.4-4.5,17.6l-0.6,1.1c-5.3,10-8.4,21.4-8.4,33.6
	c0,12.3,3,24.7,8,33c1.7,2.8,3,4.3,3,4.3l0.1-0.1c1.8-1.4,3.9-2.3,6.3-2.6l0.2,0c15.4-1.1,28.3-11.7,32.7-26v0
	C112.4,46.9,99.4,24.3,82,5.9z M88.4,84.1c-9.2,0-16.6-7.4-16.6-16.6c0-9.2,7.4-16.6,16.6-16.6c9.2,0,16.6,7.4,16.6,16.6
	C105,76.7,97.5,84.1,88.4,84.1z"/>
<path fill="#F2F2F2" d="M82.8,59.1c-0.4,2.7,1.3,5.4,4,6.2c3,0.9,6.2-0.8,7.1-3.8c0.2-0.8,0.3-1.6,0.2-2.4c3.9,2.6,5.5,7.7,3.7,12.2
	c-2.1,5.2-8,7.7-13.2,5.6c-5.2-2.1-7.7-8-5.6-13.2C79.8,61.8,81.1,60.2,82.8,59.1z"/>
<path fill="#F4DBA4" d="M73.9,115.8c-0.5-0.5,0.1-2,1.4-3.2c1.1-1,2.2-1.6,2.9-1.4c0.3-0.8,0.5-1.6,0.6-2.5
	c-3.3-2.3-7.2-3.6-11.5-3.6s-8.3,1.3-11.5,3.6c0.1,0.8,0.3,1.6,0.6,2.5c0.7-0.1,1.8,0.4,2.9,1.4c1.3,1.2,1.9,2.7,1.4,3.2
	c-0.3,0.4-1.1,0.2-1.9-0.2c2.1,2.7,5.2,4.5,8.5,4.5c3.4,0,6.4-1.9,8.5-4.5C74.9,116,74.2,116.1,73.9,115.8z"/>
<path fill="#F4DBA4" d="M67.2,120.1l0.1,2.4c0,0,0.1,0.4,1,0.6c1,0.2,4.1,0.2,4.1,0.2l-5.3,0.2l-5.3-0.2c0,0,3.1-0.1,4.1-0.2
	c0.9-0.2,1-0.6,1-0.6L67.2,120.1"/>
</svg>
