<?xml version="1.0" encoding="utf-8"?>
<!-- Generator: Adobe Illustrator 16.0.0, SVG Export Plug-In . SVG Version: 6.00 Build 0)  -->
<!DOCTYPE svg PUBLIC "-//W3C//DTD SVG 1.1//EN" "http://www.w3.org/Graphics/SVG/1.1/DTD/svg11.dtd">
<svg version="1.1" id="Calque_1" xmlns="http://www.w3.org/2000/svg" xmlns:xlink="http://www.w3.org/1999/xlink" x="0px" y="0px"
	 width="250px" height="125px" viewBox="172.641 358.446 250 125" enable-background="new 172.641 358.446 250 125"
	 xml:space="preserve">
<rect x="172.641" y="358.446" width="250" height="125"/>
<g>
	<path fill="#FFFFFF" d="M208.582,404.124v30.822h15.975v2.725h-19.169v-33.547H208.582z"/>
	<path fill="#FFFFFF" d="M303.395,404.124c1.646,0,3.137,0.211,4.474,0.634c1.337,0.424,2.486,1.05,3.445,1.879
		c0.96,0.831,1.697,1.841,2.211,3.032c0.515,1.19,0.772,2.537,0.772,4.04s-0.258,2.85-0.772,4.04
		c-0.514,1.191-1.251,2.202-2.211,3.032c-0.959,0.829-2.108,1.456-3.445,1.879c-1.337,0.422-2.828,0.635-4.474,0.635h-8.107v14.377
		h-3.497v-33.548H303.395L303.395,404.124z M302.624,420.569c2.434,0,4.404-0.563,5.914-1.691c1.508-1.128,2.264-2.851,2.264-5.169
		s-0.756-4.04-2.264-5.168c-1.51-1.128-3.48-1.691-5.914-1.691h-7.335v13.72H302.624L302.624,420.569z"/>
	<path fill="#FFFFFF" d="M252.082,411.132l-2.07,1.91c0.303,0.774,0.553,1.592,0.75,2.453c0.4,1.754,0.602,3.555,0.602,5.402
		c0,1.817-0.201,3.61-0.602,5.38c-0.401,1.771-1.022,3.352-1.862,4.745c-0.841,1.394-1.915,2.513-3.22,3.359
		c-1.306,0.847-2.878,1.269-4.713,1.269c-1.837,0-3.415-0.422-4.734-1.269c-1.318-0.847-2.399-1.966-3.238-3.359
		c-0.842-1.393-1.461-2.975-1.863-4.745c-0.402-1.77-0.603-3.562-0.603-5.38c0-1.848,0.2-3.648,0.603-5.402
		c0.401-1.755,1.021-3.329,1.863-4.724c0.839-1.392,1.92-2.513,3.238-3.359c1.32-0.845,2.896-1.268,4.734-1.268
		c1.835,0,3.407,0.423,4.713,1.268c0.1,0.065,0.189,0.143,0.287,0.21l2.022-1.866c-0.419-0.325-0.855-0.631-1.319-0.903
		c-1.63-0.955-3.532-1.434-5.703-1.434c-2.173,0-4.082,0.479-5.723,1.434c-1.643,0.955-3.006,2.24-4.093,3.853
		c-1.086,1.614-1.9,3.47-2.443,5.567c-0.543,2.1-0.815,4.308-0.815,6.626s0.271,4.525,0.815,6.624
		c0.543,2.099,1.357,3.946,2.443,5.543c1.086,1.599,2.45,2.875,4.093,3.83c1.642,0.955,3.55,1.434,5.723,1.434
		c2.171,0,4.073-0.479,5.703-1.434c1.628-0.955,2.986-2.231,4.073-3.83c1.086-1.597,1.9-3.444,2.444-5.543
		c0.543-2.099,0.814-4.307,0.814-6.624c0-2.319-0.271-4.526-0.814-6.626C252.899,413.156,252.526,412.113,252.082,411.132z"/>
	<path fill="#FFFFFF" d="M282.886,411.539l-2.097,1.936c0.232,0.646,0.439,1.313,0.601,2.021c0.401,1.754,0.602,3.555,0.602,5.402
		c0,1.817-0.201,3.61-0.602,5.38c-0.401,1.771-1.022,3.352-1.862,4.745c-0.841,1.394-1.914,2.513-3.22,3.359
		c-1.307,0.847-2.877,1.269-4.714,1.269c-1.835,0-3.413-0.422-4.732-1.269c-1.32-0.847-2.4-1.966-3.239-3.359
		c-0.841-1.393-1.462-2.975-1.863-4.745c-0.401-1.77-0.602-3.562-0.602-5.38c0-1.848,0.2-3.648,0.602-5.402
		c0.401-1.755,1.022-3.329,1.863-4.724c0.839-1.392,1.919-2.513,3.239-3.359c1.319-0.845,2.896-1.268,4.732-1.268
		c1.837,0,3.407,0.423,4.714,1.268c0.22,0.143,0.424,0.306,0.632,0.463l2.001-1.847c-0.517-0.43-1.056-0.832-1.644-1.176
		c-1.63-0.955-3.53-1.434-5.704-1.434c-2.171,0-4.08,0.479-5.721,1.434c-1.644,0.955-3.007,2.24-4.093,3.853
		c-1.087,1.614-1.901,3.47-2.445,5.567c-0.543,2.1-0.814,4.308-0.814,6.626s0.271,4.525,0.814,6.624s1.358,3.946,2.445,5.543
		c1.085,1.599,2.449,2.875,4.093,3.83c1.642,0.955,3.55,1.434,5.721,1.434c2.173,0,4.074-0.479,5.704-1.434s2.987-2.231,4.073-3.83
		c1.087-1.597,1.901-3.444,2.443-5.543c0.543-2.099,0.815-4.307,0.815-6.624c0-2.319-0.272-4.526-0.815-6.626
		C283.564,413.308,283.25,412.401,282.886,411.539z"/>
	<g>
		<path fill="#FFFFFF" d="M384.811,405.347l-2.776,2.562c2.582,3.695,4.103,8.188,4.103,13.037
			c0,12.586-10.203,22.788-22.788,22.788s-22.787-10.202-22.787-22.788c0-12.585,10.202-22.788,22.787-22.788
			c4.618,0,8.912,1.379,12.503,3.739l2.824-2.605c-4.333-3.076-9.619-4.892-15.326-4.892c-14.639,0-26.546,11.908-26.546,26.546
			s11.907,26.547,26.546,26.547c14.637,0,26.546-11.909,26.546-26.547C389.896,415.12,388.005,409.73,384.811,405.347z"/>
	</g>
</g>
</svg>
