<?xml version="1.0" encoding="utf-8"?>
<!-- Generator: Adobe Illustrator 19.1.0, SVG Export Plug-In . SVG Version: 6.00 Build 0)  -->
<svg version="1.1" id="Calque_1" xmlns="http://www.w3.org/2000/svg" xmlns:xlink="http://www.w3.org/1999/xlink" x="0px" y="0px"
	 viewBox="10 292 210 210" style="enable-background:new 10 292 210 210;" xml:space="preserve">
<style type="text/css">
	.st0{fill:#4EAC3A;}
	.st1{fill:#FFFFFF;}
</style>
<rect x="10" y="292" class="st0" width="210" height="210"/>
<g>
	<path class="st1" d="M146.7,351.7c5.1-0.2,9-2.3,13.6-3.2c5.1-0.7,4.8,5.1,8.8,5.8c0.5,0.7,1.4,1.2,2.1,1.8
		c0.5,1.8,0.9,3.7,0.9,5.8c0.7,0.5,1.4,0.5,2.1,0c2.8-2.1,4.1-7.4,9-4.8c2.5,1.8,6.7,3.2,5.8,8.1c-0.7,3.2-2.3,5.8-1.6,9.9
		c-0.7,8.8,0.9,18-1.8,25.3c-0.9,4.1-5.1,10.8-0.5,14.3c3.2,2.1,6.2,4.1,10.4,4.6c1.4,0.5,2.5,0.9,3,2.5c0,1.6-1.2,2.5-2.3,3.2
		c-3.7-0.2-4.4-4.1-7.8-4.6c-2.3-1.2-6.9-1.2-9.2,0.2c-3.9,2.1-4.8,6.7-6.4,10.6c-0.2,1.8,0,2.5-1.2,3.5c-0.9,0.5-2.3,1.4-3.7,0.7
		c-0.7-0.2-0.5-1.2-0.7-1.6c0.9-2.3,2.5-3.9,3.5-6.4c0.2-1.6,1.6-3,0.9-5.1c-0.5-1.4-1.8-2.3-3-2.8c-2.1-0.2-5.1-0.2-6,1.4
		c-1.4,1.6-2.5,3.7-5.1,4.1c-0.9-0.7-2.1-0.7-2.5-2.1c0-1.6,1.6-2.1,2.5-3c3-2.3,7.1-3.7,7.8-8.1c-0.5-0.9-0.9-1.4-1.8-1.8
		c-3-1.4-5.3,2.5-7.8,0c-0.2-2.5,3.2-2.5,2.3-5.1c-1.6-1.6-1.6-4.1-3.5-5.3c-1.4-0.5-1.8,0.5-2.5,0.9c-2.5,2.1-5.1,3.5-8.1,4.6
		c-2.3,0.9-4.8,1.8-7.1,3l-0.7,1.2c-1.8,8.1-2.8,16.8-7.6,22.8c-0.7,1.8-1.6,3.5-0.9,5.8c0.9,4.1,4.6,6.9,8.5,8.1
		c0.9,0.7,1.6,1.4,2.1,2.3c-0.7,1.4-2.1,2.1-3.7,2.3c-2.1-0.7-3.5-2.5-4.8-3.9c-5.1-3.2-10.1-9.7-18-6c-3,2.3-6.9,3.7-8.8,7.1
		c-0.5,1.4-0.7,3-2.1,3.7c-1.2,0.5-2.5,0.2-3.2-0.2c-0.9-2.8,1.2-4.6,2.1-6.7c2.8-3.5,9-4.1,9.7-9.7c-0.2-1.2-0.7-2.1-1.6-2.8
		c-2.8-0.9-5.5,0-8.5,0c-0.9-0.5-2.8,0-2.5-1.6c1.6-2.3,4.4-4.1,8.1-3.2c2.8,1.4,6.4,0,9.4,0c0.9-0.7,2.8-0.7,3-2.1
		c0-1.8-0.5-4.4,0.5-5.8c0.9-2.1,4.8-0.7,5.1-3.5c0-1.6,0.9-3.2-0.7-3.9c-4.1-0.2-8.3-0.7-12.7-0.9c-5.5-0.2-11.1-0.7-16.4-1.6
		c-3.9,0.2-7.4,1.6-11.7,0.9c-4.4-0.5-7.8-2.1-12.4-2.5c-0.7,0.2-1.4,0.2-1.8,0.9c-1.2,3,0.9,5.1,1.2,7.6c-0.2,1.4-1.8,1.8-2.8,2.3
		c-0.9-0.2-1.8-0.5-2.3-1.4c-1.4-1.8,0.7-4.1-0.5-6.2c-0.2-1.6-0.2-3.7-1.8-4.1c-2.8-0.9-5.8-1.4-8.1-2.5c-3.2-0.7-4.8,1.6-6.9,3
		l-8.3,3.9c-2.1,1.4-2.5,3.9-4.6,4.8c-1.8,0.2-2.3-1.2-3.5-1.8c-0.7-3,2.5-3.9,4.4-5.3c3-1.6,6-3.5,9-4.6c1.2-1.4,3.7-2.1,3-4.6
		c-0.9-1.2-1.8-2.1-3.7-2.1c-1.6,0-2.8,1.4-4.4,0.9c-1.2-0.9-2.8-1.6-2.5-3.5c1.2-3.5,8.8,0.5,8.1-5.1c0.7-4.8,3.9-7.8,5.1-12.2
		c-1.2-2.8-2.1-7.4,0-10.1c1.8-2.5,4.6-3.2,6.9-4.8c2.3-0.7,4.6,0.2,7.1,0.2c2.8,2.8,8.1,1.8,12.4,2.1l5.3-0.2
		c1.4-0.7,3-0.9,4.1-1.8L85,363c5.3-2.8,10.8-5.1,16.4-7.8c1.8-0.7,4.1-0.5,5.8-1.4c6.4-2.5,12.2-6,20.5-5.1
		C134.3,349.4,140,351.5,146.7,351.7L146.7,351.7z"/>
	<path class="st0" d="M163.1,351c0.2,0.5,0.2,1.4,0,1.6c-2.1,0.7-4.8,0.2-6.2-0.5c0.2-1.2,1.6-1.4,2.8-1.6
		C160.8,350.6,162.2,350.3,163.1,351L163.1,351z"/>
	<path class="st0" d="M117.9,355.9c-0.9,1.6-2.8,2.1-4.1,3.5l-8.3,3.2c-1.4,0.5-3.2,1.2-4.8,0.7c-0.2-1.6,1.6-2.1,2.5-3.2
		c3.9-2.5,9.2-3.2,13.6-4.8C117.5,355.2,117.9,355.4,117.9,355.9L117.9,355.9z"/>
	<path class="st0" d="M164.2,356.3c0.7,0.9,1.8,1.8,0.9,3.2c-1.2,1.2-3,2.5-4.8,1.6c-1.8-1.2-3-2.8-4.1-4.6
		c-0.2-0.7,0.5-0.7,0.7-0.9C159.6,355.4,161.9,355.9,164.2,356.3L164.2,356.3z"/>
	<path class="st0" d="M143.5,359.1c-0.5,4.1,3.9,8.5,0,11.5c-3,3.9-7.8,5.1-12.9,6c-5.3-0.2-7.1-4.8-10.8-7.1
		c-1.2-0.5-1.8-1.8-1.4-3.5c-2.5-0.7-3.5,2.3-4.8,3.5c-3,1.4-7.4,0.9-10.8,1.6c-3,0.2-6,0.7-9,0.9c-1.6,0.5-2.5,1.2-4.4,1.2
		c-0.5-0.7,0.7-1.2,0.9-1.8l4.6-2.1l8.5-2.1c3-0.2,5.5-1.4,7.6-2.5c3.5-1.8,7.8-2.5,11.1-4.6c5.1-2.1,11.7-1.8,18-1.6
		C141.2,358.2,142.8,357.9,143.5,359.1L143.5,359.1z"/>
	<path class="st0" d="M185.7,362.3c0.9,3-0.9,5.1-0.9,7.8l-1.4,9.4c-0.5,4.4-1.4,8.8-2.5,12.7c-1.8,3.7-2.8,7.6-5.5,10.4
		c-2.3,3.7-6.2,5.5-11.5,4.8c-2.5-0.7-4.6-2.3-5.5-4.8l0.5-0.7c1.2-0.2,1.6,0.7,2.5,1.2c1.8,0.2,4.8,1.4,6-0.5
		c-1.2-2.5-4.6-3-5.8-5.8c-2.8-4.4-0.9-11.5-0.2-16.6c0.7-2.8,1.4-5.3,2.5-7.6c0.9-3.2,2.5-6.4,5.3-8.1c0.9,0,1.4,0.5,1.6,0.7
		c-0.7,6.7-3.9,11.3-4.6,17.7l-1.2,7.8c0.5,3.2,3.7,3.9,5.1,6.4c0.7,0.5,1.6,0.2,2.5-0.2c1.8-0.9,2.1-3,2.8-4.8
		c0.7-2.5,1.4-5.3,1.8-7.8l1.2-9.2c0.7-1.2,0.2-2.8,0.9-4.1l-0.2-0.2c-1.2,1.2-1.2,3.9-2.1,5.8c-1.8,5.3-3,11.3-6.2,15.7
		c-0.7,0.2-1.6,0-2.3-0.2c-1.4-1.2-0.7-3.5-0.5-5.3c1.2-3,2.8-5.8,3.9-9c2.1-6.2,3.2-12.9,7.6-17.5c0.9-0.5,2.3-1.4,3.5-0.5
		C184.3,360.2,184.7,361.4,185.7,362.3L185.7,362.3z"/>
	<path class="st0" d="M92.8,363.2c-0.5,2.1-2.5,2.5-3.7,3.9c-0.9,0.9-1.6,1.6-2.5,2.1c-0.9,0-2.5,0.2-3.5-0.2
		c-0.5-1.4,1.4-1.4,2.3-1.8c1.2-0.9,2.1-2.5,3.5-3.2C90.1,363.7,91.2,363.2,92.8,363.2L92.8,363.2z"/>
	<path class="st0" d="M158.7,365.3c0.7,3.9-0.5,8.3-3.2,10.4c-2.5,0.9-4.6,3-7.6,2.8l-0.5-0.9c0.9-3.2,1.8-6.4,1.6-10.4
		c0.5-0.9,1.4-0.9,1.8-0.5c0.9,1.2,1.2,2.5,1.6,3.9c1.4-0.5,1.4-1.8,1.4-3c0.2-1.4,0.5-3,1.4-3.9c0.9-0.2,1.4-0.2,2.1,0.2
		C158.2,364.1,158.2,365.1,158.7,365.3L158.7,365.3z"/>
	<path class="st0" d="M64.3,368.1c0.9,0.9,0,2.3-0.5,3c-1.4,1.4-3.2,2.3-5.5,1.8c0-2.3-0.9-4.1-0.7-6.4c0.2-0.2,0.7-0.7,0.9-0.7
		C60.8,365.8,63.1,366.2,64.3,368.1L64.3,368.1z"/>
	<path class="st0" d="M51.6,373.1c0.5,0.7,0,1.4,0,2.3c-0.2,0-0.9,0-1.2,0c-1.2-2.1-0.2-4.6,0.7-6.2c0.2-0.5,0.2,0,0.5,0V373.1
		L51.6,373.1z"/>
	<path class="st0" d="M90.5,384.6c2.5,0,3.9,1.6,6.7,1.2c2.1-1.8,4.4-3.7,7.8-3c2.1,0.5,3,2.8,4.8,3.7c2.1,1.2,4.1,2.3,6,3.9
		c0.2,0.5,0.5,1.6-0.2,1.8c-2.5,1.6-5.8-0.2-8.1-1.2c-4.8-1.4-10.4-1.8-15.7-3c-1.8,0-0.5,3-1.2,4.1c-1.4,2.1-2.8,4.8-5.3,5.8
		c0,0.7-0.2,1.2,0.5,1.4c3.5-0.7,8.5-0.2,9.7-3.9c0.7-0.7,1.2-1.2,2.3-1.2c1.2,0.7,2.8,0.5,3.5,1.6c-0.7,1.4-2.1,1.8-2.8,3.2
		c-1.2,3.7-4.8,4.8-7.6,6.2c-3,0.7-6,3-9.4,1.8v-0.9c1.8-1.2,4.4-1.2,6.2-2.8v-0.2c-1.6,0.2-3,1.2-4.8,0.9c-0.9,0.2-1.6-0.2-2.3,0
		c-4.1-0.2-7.6-1.6-11.7-1.6c-4.8-0.5-9.7-1.4-14.5-1.8c-3.5-0.9-7.4-1.6-8.8-4.8c-0.5-1.6-1.6-3.7-0.5-5.3c1.2,0.7,1.2,2.1,1.8,3
		c3,3.5,8.5,0.9,13.6,2.1c2.8,0.9,5.3,1.8,7.1,3.9c0.7,0.5,1.8,0.7,2.3,1.4c1.2,0.2,3,0.2,4.1,0c0.5-0.9-0.7-0.7-0.9-1.2
		c-3-1.6-5.1-4.6-5.1-8.3c0-4.8,2.1-8.8,6-10.6c2.5-1.6,8.1-2.5,10.8-0.7C87.3,381.4,88.2,383.7,90.5,384.6L90.5,384.6z"/>
	<path class="st0" d="M66.6,379.8c0,2.1-1.6,3-1.4,5.3c0,0.9,0.5,2.3,0,3c-2.1,0.7-3.5-0.9-5.8-0.7c-2.1,0.5-3.9,3.2-6,0.9
		c-0.5-0.7-0.2-1.6,0.5-1.8c2.1-1.6,5.8-0.7,7.6-2.8c1.4-1.4,2.1-3.2,4.1-4.1L66.6,379.8L66.6,379.8z"/>
	<path class="st0" d="M52.5,383c-0.5,1.4-1.4,3.2-3,3.7c-0.9,0.2-1.4-0.5-1.6-0.9c-0.5-2.5,2.8-2.3,3.5-4.4
		C52.7,380.5,52.3,382.3,52.5,383L52.5,383z"/>
	<path class="st1" d="M85.5,384.9c1.6,2.1,2.1,6.4,0.5,8.8c-1.8,2.1-3.9,4.6-7.6,4.1c-2.1,0.2-4.1-0.2-5.5-1.6
		c-1.4-1.8-2.3-4.1-1.8-6.7c0.7-3.2,3.7-5.3,6.2-6.7C80.6,382.3,83.8,382.8,85.5,384.9L85.5,384.9z"/>
	<path class="st0" d="M83.4,385.1c-0.2,0.7,0.9,0.9,0.2,1.6c-3-0.7-7.4-0.5-9.7,1.2c-0.7-1.6,1.2-2.1,1.8-2.8
		C77.6,384,81.5,383.3,83.4,385.1L83.4,385.1z"/>
	<path class="st0" d="M185.4,390.9c0,5.8-2.1,9.9-3.5,14.3c-0.5,0.9-0.9,2.8-2.1,1.6c-1.4-2.3,0-5.1,0.9-7.1
		c1.2-1.6,0.7-4.4,1.6-6.2c0.9-1.4,0.9-3.2,1.6-4.6C185.4,388.3,185.2,390.2,185.4,390.9L185.4,390.9z"/>
	<path class="st0" d="M143,389.5c2.3,0.2,4.4,0.7,6.7,0.9c1.4,0.5,1.2,2.1,1.2,3.2c-1.8,6-6,10.8-12.7,11.5
		c-1.2-0.2-0.9-1.6-0.9-2.8c1.2-2.3,0.2-5.5-1.2-7.6c-1.4-1.4-3.9-1.6-5.3-3.2c-0.2-0.5,0-1.2,0.5-1.4c3.2-1.2,7.1-0.9,10.8-0.9
		L143,389.5L143,389.5z"/>
	<path class="st0" d="M84.5,392.5c0,1.6-0.7,2.5-1.8,3.2c-1.8,0.9-4.8,1.8-6.9,0.7c-0.5-0.7-1.6-1.2-0.9-2.1c1.6,0,4.6,0.5,6-0.2
		C82,393.6,82.9,392,84.5,392.5L84.5,392.5z"/>
	<path class="st0" d="M134.5,395.5c1.6,1.2,1.6,3.2,1.4,5.5l-1.4,10.1c-0.5,2.5-1.2,4.8-1.6,7.1c-1.4,3.7-2.1,7.6-3.9,10.8
		c-1.8,2.3-4.1,4.4-4.1,8.1c0.2,0.7-0.9,0.5-1.2,0.2c-1.4-1.4-2.5-3.7-5.3-2.8c-2.1,0-3.7,1.8-5.5,0.9c-0.5-1.4,0.2-2.8,0-3.9
		c0.2-1.2,0.2-2.1,1.2-2.5c2.3-1.4,4.8-1.8,7.8-1.2c3.5,0.5,4.4-2.8,6-4.6c1.2-4.4,1.4-9.2,2.3-13.8c0.7-3.7,2.1-8.1,0.7-11.7
		c-0.2-1.2-1.8-1.4-3.2-1.6c-3.7,1.8-8.3,2.8-12.2,3.5c-1.8,0-2.5,1.4-3,2.5c-0.2,0.9,0.7,0.5,1.2,0.9c0.5,0.5,1.4,0.7,1.6,1.8
		c-1.2,1.6-2.5,3.5-4.6,4.4c-2.3,0.9-5.1,0.5-7.8,0.7c-1.2,0-3,0-3.5-1.4l0.2-0.7c4.4-2.3,8.1-5.3,10.1-9.7c2.3-1.6,5.3-2.1,8.1-3.2
		c3.7-1.8,10.6-3.2,14.7-0.7L134.5,395.5L134.5,395.5z"/>
	<path class="st0" d="M39.8,396.2c-0.2,0.5-0.2,0.7-0.7,1.2c-0.9,0.2-0.9,0-1.6-0.2c-0.5,0-0.5-0.9-0.2-1.4
		C38,395.2,39.4,395.2,39.8,396.2L39.8,396.2z"/>
	<path class="st0" d="M70.9,404.9c0,1.4-1.8,0.9-3,1.2c-3.7-0.2-7.1-0.5-9.7-1.8l0.2-0.7C62.9,403.5,66.8,404.5,70.9,404.9
		L70.9,404.9z"/>
	<path class="st0" d="M122.8,407.5c0.2,0.9,0,1.6-0.5,2.3c-1.4,0.5-3.7,0.9-5.3,0.2c-0.2-0.5-0.5-1.2,0-1.6
		C118.2,407,120.9,406.1,122.8,407.5L122.8,407.5z"/>
	<path class="st0" d="M179.4,412.8c0.9,0.7,1.6,1.6,2.1,2.5c0,1.6-2.1,1.2-3,1.8c-1.2,0.7-2.1,2.1-3.2,3c-0.7,0-0.9-0.7-0.9-1.4
		c0.2-1.8-0.7-3.9,0-5.8c0.2-1.2,0.9-2.3,2.1-3C178.1,410,178.5,411.8,179.4,412.8L179.4,412.8z"/>
	<path class="st0" d="M34.5,411.8c0.5,0.9-0.5,1.8-0.9,2.5c-0.7,0.2-1.8,0.5-2.3-0.2c-0.7-0.2-0.5-1.2-0.5-1.6
		C31.8,411.6,33.6,410.7,34.5,411.8L34.5,411.8z"/>
	<path class="st0" d="M170.7,415.7c0,0.9-0.2,1.6-0.9,1.6c-1.6-0.2-3,0.9-4.1-0.5c-0.7-2.1,1.4-3,2.3-4.4
		C169.8,412.8,170,414.4,170.7,415.7L170.7,415.7z"/>
	<path class="st0" d="M66.3,415.1c0.2,0.7,0,1.4-0.5,1.8c-0.7,0.9-1.4,0-2.1-0.5c-0.5-0.5,0-1.6,0.2-2.1
		C64.7,414.1,65.9,414.4,66.3,415.1L66.3,415.1z"/>
	<path class="st0" d="M121.4,420.4c0.2,1.6-0.2,2.8-0.9,3.7c-0.5,0.5-1.2,0-1.2-0.2c-0.5-1.2-0.9-2.5-0.2-3.5
		C119.3,419.9,121.2,419.2,121.4,420.4L121.4,420.4z"/>
	<path class="st0" d="M160.1,421c0.5,1.2-0.7,1.4-0.9,2.1c-0.5,0.5-1.4,0.7-2.3,0.2c-0.5-0.2-0.5-1.2-0.2-1.6
		C157.3,420.8,159.6,419.2,160.1,421L160.1,421z"/>
	<path class="st0" d="M196.2,421.7c0.2,0.9-0.2,1.4-0.7,1.6c-1.2,0.5-1.8-0.2-2.3-0.7s0.2-0.9,0.2-1.4
		C194.2,420.4,196,420.6,196.2,421.7L196.2,421.7z"/>
	<path class="st0" d="M105.5,428.9c0,0.7,0.2,1.2-0.2,1.4c-1.8,0.2-3.5,0.5-4.8-0.2c-0.2-0.9-0.2-2.1,0.7-2.3
		C103.2,427.3,104.1,428.2,105.5,428.9L105.5,428.9z"/>
	<path class="st0" d="M171.4,432.1c0.2,0.9,0.2,0.9-0.2,1.4c-0.5,0.7-1.4,1.2-2.3,0.7c-0.2-0.5-0.7-1.2-0.2-1.6
		C169.1,431.6,170.9,430.7,171.4,432.1L171.4,432.1z"/>
	<path class="st0" d="M101.6,447.1c0.2,0.7,0.2,2.1-0.7,2.5c-0.7,0.2-1.4,0.5-2.1-0.2c-0.7-0.9,0-1.8,0.5-2.5
		C99.7,445.5,101.3,446.4,101.6,447.1L101.6,447.1z"/>
	<path class="st0" d="M136.4,448c0.2,0.9-0.7,1.4-1.2,1.8c-1.2,0.5-1.6-0.7-2.5-1.2c-0.5-0.5-0.9-1.6,0-2.1
		C134.1,446.2,135.7,446.8,136.4,448L136.4,448z"/>
</g>
</svg>
