<?xml version="1.0" encoding="utf-8"?>
<!-- Generator: Adobe Illustrator 16.0.0, SVG Export Plug-In . SVG Version: 6.00 Build 0)  -->
<!DOCTYPE svg PUBLIC "-//W3C//DTD SVG 1.1//EN" "http://www.w3.org/Graphics/SVG/1.1/DTD/svg11.dtd">
<svg version="1.1" id="Calque_1" xmlns="http://www.w3.org/2000/svg" xmlns:xlink="http://www.w3.org/1999/xlink" x="0px" y="0px"
	 width="595.279px" height="595.28px" viewBox="0 246.61 595.279 595.28" enable-background="new 0 246.61 595.279 595.28"
	 xml:space="preserve">
<rect x="0" y="246.61" fill="#4EAC3A" width="595.279" height="595.28"/>
<g>
	<path fill="#FFFFFF" d="M387.499,415.841c14.456-0.567,25.512-6.521,38.551-9.071c14.457-1.984,13.606,14.457,24.945,16.44
		c1.417,1.984,3.969,3.402,5.953,5.103c1.417,5.103,2.551,10.488,2.551,16.441c1.984,1.417,3.969,1.417,5.953,0
		c7.937-5.953,11.622-20.977,25.512-13.606c7.087,5.103,18.992,9.071,16.441,22.961c-1.984,9.07-6.52,16.441-4.536,28.062
		c-1.983,24.945,2.552,51.024-5.102,71.718c-2.552,11.622-14.457,30.614-1.418,40.535c9.071,5.953,17.575,11.622,29.48,13.04
		c3.969,1.417,7.087,2.551,8.504,7.087c0,4.535-3.401,7.086-6.52,9.07c-10.488-0.566-12.473-11.622-22.11-13.039
		c-6.52-3.401-19.559-3.401-26.079,0.566c-11.055,5.953-13.606,18.993-18.142,30.048c-0.566,5.103,0,7.087-3.401,9.922
		c-2.552,1.417-6.52,3.968-10.488,1.983c-1.984-0.566-1.418-3.401-1.984-4.535c2.551-6.52,7.087-11.055,9.921-18.142
		c0.567-4.535,4.536-8.504,2.552-14.457c-1.418-3.969-5.103-6.52-8.504-7.938c-5.953-0.566-14.457-0.566-17.008,3.969
		c-3.969,4.536-7.087,10.488-14.457,11.622c-2.552-1.984-5.953-1.984-7.087-5.952c0-4.536,4.535-5.953,7.087-8.504
		c8.504-6.521,20.126-10.488,22.11-22.961c-1.418-2.552-2.552-3.969-5.103-5.103c-8.504-3.969-15.023,7.087-22.11,0
		c-0.567-7.087,9.071-7.087,6.52-14.457c-4.535-4.535-4.535-11.622-9.921-15.023c-3.969-1.417-5.103,1.417-7.087,2.551
		c-7.087,5.953-14.457,9.922-22.961,13.04c-6.52,2.551-13.606,5.102-20.126,8.504l-1.984,3.401
		c-5.103,22.961-7.938,47.622-21.544,64.63c-1.983,5.103-4.535,9.922-2.551,16.441c2.551,11.622,13.039,19.56,24.095,22.961
		c2.551,1.984,4.535,3.969,5.953,6.52c-1.984,3.969-5.953,5.953-10.488,6.52c-5.953-1.984-9.922-7.086-13.606-11.055
		c-14.457-9.071-28.631-27.496-51.024-17.008c-8.504,6.52-19.559,10.488-24.945,20.126c-1.417,3.969-1.983,8.504-5.952,10.488
		c-3.401,1.417-7.087,0.567-9.071-0.567c-2.551-7.937,3.401-13.039,5.953-18.992c7.937-9.921,25.512-11.622,27.496-27.496
		c-0.566-3.401-1.984-5.953-4.535-7.938c-7.938-2.551-15.591,0-24.095,0c-2.552-1.417-7.938,0-7.087-4.535
		c4.535-6.52,12.473-11.622,22.961-9.07c7.937,3.968,18.142,0,26.646,0c2.551-1.984,7.938-1.984,8.504-5.953
		c0-5.103-1.417-12.473,1.417-16.441c2.552-5.953,13.606-1.984,14.457-9.921c0-4.536,2.552-9.071-1.984-11.056
		c-11.622-0.566-23.527-1.984-36-2.551c-15.591-0.567-31.465-1.984-46.488-4.536c-11.055,0.567-20.977,4.536-33.166,2.552
		c-12.472-1.418-22.11-5.953-35.149-7.087c-1.984,0.567-3.969,0.567-5.103,2.552c-3.401,8.504,2.552,14.456,3.401,21.543
		c-0.566,3.969-5.103,5.103-7.937,6.52c-2.552-0.566-5.103-1.417-6.52-3.969c-3.969-5.102,1.983-11.622-1.418-17.574
		c-0.566-4.536-0.566-10.488-5.103-11.622c-7.937-2.552-16.44-3.969-22.96-7.087c-9.071-1.984-13.606,4.535-19.56,8.504
		L78.52,585.069c-5.952,3.969-7.086,11.056-13.039,13.606c-5.103,0.567-6.52-3.401-9.921-5.103
		c-1.984-8.504,7.086-11.055,12.472-15.023c8.505-4.535,17.009-9.921,25.513-13.039c3.401-3.969,10.488-5.953,8.504-13.04
		c-2.552-3.401-5.103-5.952-10.488-5.952c-4.535,0-7.938,3.969-12.473,2.551c-3.401-2.551-7.938-4.535-7.087-9.921
		c3.402-9.922,24.945,1.417,22.961-14.457c1.984-13.606,11.056-22.11,14.457-34.583c-3.401-7.938-5.953-20.977,0-28.63
		c5.103-7.087,13.039-9.071,19.56-13.606c6.52-1.984,13.039,0.566,20.126,0.566c7.937,7.938,22.961,5.103,35.149,5.953l15.023-0.567
		c3.969-1.983,8.505-2.551,11.623-5.103l1.7-0.85c15.024-7.938,30.614-14.457,46.489-22.11c5.102-1.984,11.622-1.417,16.44-3.969
		c18.142-7.087,34.583-17.008,58.11-14.457C352.349,409.32,368.506,415.273,387.499,415.841L387.499,415.841z"/>
	<path fill="#4EAC3A" d="M433.988,413.856c0.566,1.417,0.566,3.968,0,4.535c-5.953,1.984-13.606,0.566-17.575-1.417
		c0.567-3.402,4.535-3.969,7.938-4.536C427.468,412.722,431.436,411.872,433.988,413.856L433.988,413.856z"/>
	<path fill="#4EAC3A" d="M305.861,427.746c-2.552,4.535-7.938,5.952-11.622,9.921l-23.527,9.071
		c-3.969,1.417-9.071,3.401-13.606,1.984c-0.567-4.536,4.535-5.953,7.086-9.071c11.056-7.087,26.079-9.07,38.552-13.606
		C304.727,425.762,305.861,426.328,305.861,427.746L305.861,427.746z"/>
	<path fill="#4EAC3A" d="M437.106,428.88c1.984,2.551,5.103,5.103,2.551,9.07c-3.401,3.402-8.504,7.087-13.606,4.536
		c-5.103-3.401-8.504-7.938-11.622-13.04c-0.566-1.984,1.418-1.984,1.984-2.551C424.066,426.328,430.586,427.746,437.106,428.88
		L437.106,428.88z"/>
	<path fill="#4EAC3A" d="M378.428,436.816c-1.417,11.622,11.055,24.095,0,32.599c-8.504,11.056-22.11,14.457-36.567,17.009
		c-15.023-0.567-20.126-13.606-30.614-20.126c-3.401-1.418-5.103-5.103-3.969-9.922c-7.087-1.984-9.921,6.52-13.606,9.922
		c-8.504,3.968-20.977,2.551-30.614,4.535c-8.504,0.566-17.008,1.984-25.512,2.551c-4.535,1.418-7.087,3.402-12.473,3.402
		c-1.417-1.984,1.984-3.402,2.552-5.103l13.039-5.953l24.095-5.953c8.504-0.566,15.591-3.968,21.543-7.086
		c9.922-5.103,22.11-7.087,31.465-13.04c14.457-5.953,33.166-5.103,51.024-4.535C371.908,434.266,376.444,433.415,378.428,436.816
		L378.428,436.816z"/>
	<path fill="#4EAC3A" d="M498.051,445.888c2.551,8.504-2.552,14.457-2.552,22.11l-3.968,26.646
		c-1.418,12.473-3.969,24.945-7.087,36.001c-5.103,10.488-7.938,21.543-15.591,29.48c-6.52,10.488-17.575,15.591-32.599,13.606
		c-7.087-1.984-13.039-6.52-15.591-13.606l1.418-1.984c3.401-0.567,4.535,1.984,7.086,3.401c5.103,0.567,13.606,3.969,17.008-1.417
		c-3.401-7.087-13.039-8.504-16.44-16.441c-7.938-12.473-2.552-32.599-0.567-47.056c1.984-7.937,3.969-15.023,7.087-21.543
		c2.551-9.071,7.087-18.143,15.023-22.961c2.552,0,3.969,1.417,4.536,1.984c-1.984,18.992-11.056,32.031-13.04,50.174l-3.401,22.11
		c1.417,9.07,10.488,11.055,14.457,18.142c1.984,1.417,4.535,0.566,7.087-0.567c5.102-2.551,5.952-8.504,7.937-13.606
		c1.984-7.086,3.969-15.023,5.103-22.11l3.401-26.079c1.984-3.401,0.567-7.937,2.552-11.621l-0.567-0.567
		c-3.401,3.401-3.401,11.055-5.953,16.44c-5.102,15.024-8.504,32.032-17.574,44.505c-1.984,0.567-4.536,0-6.52-0.567
		c-3.969-3.401-1.984-9.921-1.418-15.023c3.401-8.504,7.938-16.441,11.056-25.512c5.952-17.575,9.07-36.567,21.543-49.606
		c2.552-1.418,6.52-3.969,9.922-1.418C494.082,439.935,495.216,443.337,498.051,445.888L498.051,445.888z"/>
	<path fill="#4EAC3A" d="M234.71,448.438c-1.417,5.953-7.086,7.087-10.488,11.056c-2.551,2.552-4.535,4.535-7.086,5.953
		c-2.552,0-7.087,0.566-9.922-0.567c-1.417-3.969,3.969-3.969,6.52-5.103c3.402-2.551,5.953-7.086,9.922-9.07
		C227.057,449.856,230.175,448.438,234.71,448.438L234.71,448.438z"/>
	<path fill="#4EAC3A" d="M421.515,454.392c1.984,11.056-1.417,23.527-9.071,29.48c-7.086,2.552-13.039,8.504-21.543,7.938
		l-1.418-2.552c2.552-9.07,5.103-18.142,4.536-29.48c1.417-2.551,3.969-2.551,5.103-1.417c2.551,3.401,3.401,7.087,4.535,11.055
		c3.969-1.417,3.969-5.102,3.969-8.504c0.566-3.969,1.417-8.504,3.969-11.055c2.551-0.567,3.968-0.567,5.952,0.566
		C420.098,450.99,420.098,453.825,421.515,454.392L421.515,454.392z"/>
	<path fill="#4EAC3A" d="M153.922,462.329c2.552,2.551,0,6.52-1.417,8.504c-3.969,3.969-9.071,6.52-15.591,5.103
		c0-6.521-2.551-11.622-1.984-18.143c0.567-0.566,1.984-1.983,2.552-1.983C144.001,455.81,150.521,456.943,153.922,462.329
		L153.922,462.329z"/>
	<path fill="#4EAC3A" d="M117.922,476.502c1.417,1.984,0,3.969,0,6.52c-0.566,0-2.551,0-3.401,0
		c-3.401-5.952-0.567-13.039,1.984-17.574c0.566-1.418,0.566,0,1.417,0V476.502L117.922,476.502z"/>
	<path fill="#4EAC3A" d="M228.191,509.101c7.087,0,11.056,4.536,18.992,3.402c5.953-5.103,12.473-10.488,22.11-8.504
		c5.953,1.417,8.504,7.937,13.606,10.488c5.953,3.401,11.622,6.52,17.008,11.055c0.567,1.417,1.417,4.535-0.566,5.103
		c-7.087,4.535-16.441-0.567-22.961-3.401c-13.606-3.969-29.48-5.103-44.504-8.504c-5.103,0-1.418,8.504-3.402,11.621
		c-3.968,5.953-7.937,13.607-15.023,16.441c0,1.984-0.566,3.402,1.417,3.969c9.922-1.984,24.095-0.567,27.497-11.056
		c1.983-1.983,3.401-3.401,6.52-3.401c3.401,1.984,7.937,1.418,9.921,4.535c-1.984,3.969-5.952,5.103-7.937,9.071
		c-3.402,10.488-13.606,13.606-21.544,17.575c-8.504,1.984-17.008,8.504-26.646,5.103v-2.552c5.103-3.401,12.473-3.401,17.575-7.937
		v-0.567c-4.536,0.567-8.505,3.402-13.606,2.552c-2.552,0.566-4.536-0.567-6.521,0c-11.622-0.567-21.543-4.536-33.165-4.536
		c-13.606-1.417-27.496-3.969-41.103-5.102c-9.922-2.552-20.977-4.536-24.945-13.606c-1.417-4.536-4.535-10.489-1.417-15.024
		c3.401,1.984,3.401,5.953,5.102,8.504c8.504,9.922,24.095,2.552,38.552,5.953c7.938,2.551,15.023,5.103,20.126,11.056
		c1.984,1.417,5.103,1.983,6.52,3.968c3.402,0.567,8.505,0.567,11.623,0c1.417-2.551-1.984-1.984-2.552-3.401
		c-8.504-4.535-14.457-13.039-14.457-23.527c0-13.606,5.953-24.945,17.009-30.048c7.086-4.535,22.96-7.087,30.614-1.984
		C219.119,500.03,221.671,506.55,228.191,509.101L228.191,509.101z"/>
	<path fill="#4EAC3A" d="M160.443,495.494c0,5.953-4.536,8.504-3.969,15.024c0,2.551,1.417,6.52,0,8.504
		c-5.953,1.984-9.922-2.552-16.441-1.984c-5.953,1.417-11.055,9.07-17.008,2.551c-1.417-1.984-0.567-4.535,1.417-5.103
		c5.953-4.535,16.441-1.984,21.544-7.937c3.969-3.969,5.952-9.071,11.622-11.622L160.443,495.494L160.443,495.494z"/>
	<path fill="#4EAC3A" d="M120.473,504.565c-1.417,3.969-3.968,9.071-8.504,10.488c-2.551,0.566-3.968-1.417-4.535-2.551
		c-1.417-7.087,7.938-6.521,9.922-12.473C121.04,497.479,119.906,502.581,120.473,504.565L120.473,504.565z"/>
	<path fill="#FFFFFF" d="M214.018,509.951c4.535,5.953,5.952,18.142,1.417,24.945c-5.103,5.952-11.056,13.039-21.544,11.622
		c-5.952,0.566-11.622-0.567-15.59-4.535c-3.969-5.103-6.521-11.623-5.103-18.993c1.984-9.07,10.488-15.023,17.574-18.992
		C200.127,502.581,209.198,503.998,214.018,509.951L214.018,509.951z"/>
	<path fill="#4EAC3A" d="M208.065,510.519c-0.567,1.984,2.551,2.551,0.566,4.535c-8.504-1.984-20.977-1.417-27.496,3.401
		c-1.984-4.535,3.402-5.952,5.103-7.937C191.623,507.4,202.679,505.416,208.065,510.519L208.065,510.519z"/>
	<path fill="#4EAC3A" d="M497.2,526.959c0,16.441-5.953,28.063-9.921,40.536c-1.418,2.551-2.552,7.937-5.953,4.535
		c-3.969-6.52,0-14.457,2.551-20.126c3.402-4.535,1.984-12.473,4.536-17.575c2.551-3.969,2.551-9.07,4.535-13.039
		C497.2,519.589,496.633,524.975,497.2,526.959L497.2,526.959z"/>
	<path fill="#4EAC3A" d="M377.011,522.991c6.52,0.566,12.472,1.983,18.992,2.551c3.968,1.417,3.401,5.953,3.401,9.071
		c-5.103,17.008-17.008,30.614-36,32.599c-3.402-0.567-2.552-4.536-2.552-7.938c3.401-6.52,0.567-15.591-3.401-21.543
		c-3.969-3.969-11.056-4.536-15.023-9.071c-0.567-1.417,0-3.401,1.417-3.969c9.071-3.401,20.126-2.551,30.614-2.551L377.011,522.991
		L377.011,522.991z"/>
	<path fill="#4EAC3A" d="M211.183,531.495c0,4.535-1.984,7.086-5.103,9.07c-5.103,2.552-13.606,5.103-19.56,1.984
		c-1.417-1.984-4.535-3.401-2.551-5.953c4.535,0,13.039,1.418,17.008-0.566C204.096,534.613,206.648,530.077,211.183,531.495
		L211.183,531.495z"/>
	<path fill="#4EAC3A" d="M352.916,539.999c4.535,3.401,4.535,9.07,3.968,15.59l-3.968,28.631
		c-1.418,7.087-3.402,13.606-4.536,20.126c-3.968,10.488-5.952,21.544-11.055,30.614c-5.103,6.52-11.622,12.473-11.622,22.961
		c0.566,1.984-2.552,1.417-3.402,0.567c-3.968-3.969-7.086-10.488-15.023-7.938c-5.953,0-10.488,5.103-15.59,2.552
		c-1.418-3.969,0.566-7.938,0-11.056c0.566-3.401,0.566-5.953,3.401-7.087c6.52-3.969,13.606-5.103,22.11-3.401
		c9.921,1.417,12.473-7.937,17.008-13.04c3.401-12.472,3.969-26.078,6.52-39.118c1.984-10.488,5.953-22.961,1.984-33.165
		c-0.567-3.402-5.103-3.969-9.071-4.536c-10.488,5.103-23.527,7.938-34.583,9.922c-5.102,0-7.086,3.968-8.504,7.087
		c-0.566,2.551,1.984,1.417,3.402,2.551c1.417,1.417,3.968,1.984,4.535,5.103c-3.401,4.535-7.087,9.921-13.039,12.473
		c-6.521,2.551-14.457,1.417-22.11,1.984c-3.402,0-8.505,0-9.922-3.969l0.567-1.984c12.473-6.52,22.96-15.023,28.63-27.496
		c6.52-4.536,15.023-5.953,22.961-9.071c10.487-5.103,30.047-9.071,41.669-1.984L352.916,539.999L352.916,539.999z"/>
	<path fill="#4EAC3A" d="M84.473,541.983c-0.566,1.417-0.566,1.984-1.984,3.401c-2.551,0.567-2.551,0-4.535-0.567
		c-1.417,0-1.417-2.551-0.567-3.968C79.37,539.148,83.339,539.148,84.473,541.983L84.473,541.983z"/>
	<path fill="#4EAC3A" d="M172.631,566.645c0,3.969-5.103,2.552-8.504,3.401c-10.488-0.566-20.126-1.417-27.496-5.102l0.566-1.984
		C149.954,562.676,161.009,565.511,172.631,566.645L172.631,566.645z"/>
	<path fill="#4EAC3A" d="M319.75,574.015c0.567,2.551,0,4.535-1.417,6.52c-3.969,1.418-10.488,2.552-15.024,0.567
		c-0.566-1.417-1.417-3.401,0-4.536C306.711,572.598,314.365,570.046,319.75,574.015L319.75,574.015z"/>
	<path fill="#4EAC3A" d="M480.193,589.038c2.551,1.984,4.535,4.536,5.953,7.087c0,4.536-5.953,3.401-8.505,5.103
		c-3.401,1.984-5.952,5.953-9.07,8.504c-1.984,0-2.552-1.984-2.552-3.969c0.567-5.102-1.983-11.055,0-16.44
		c0.567-3.402,2.552-6.521,5.953-8.504C476.507,581.102,477.641,586.204,480.193,589.038L480.193,589.038z"/>
	<path fill="#4EAC3A" d="M69.449,586.204c1.417,2.551-1.417,5.102-2.552,7.086c-1.983,0.567-5.102,1.418-6.52-0.566
		c-1.984-0.567-1.417-3.401-1.417-4.535C61.796,585.637,66.898,583.086,69.449,586.204L69.449,586.204z"/>
	<path fill="#4EAC3A" d="M455.531,597.259c0,2.552-0.566,4.536-2.551,4.536c-4.535-0.567-8.504,2.551-11.622-1.418
		c-1.984-5.952,3.969-8.504,6.52-12.473C452.98,589.038,453.547,593.574,455.531,597.259L455.531,597.259z"/>
	<path fill="#4EAC3A" d="M159.592,595.559c0.566,1.984,0,3.968-1.418,5.103c-1.983,2.551-3.968,0-5.952-1.418
		c-1.418-1.417,0-4.535,0.566-5.953C155.056,592.724,158.458,593.574,159.592,595.559L159.592,595.559z"/>
	<path fill="#4EAC3A" d="M315.781,610.582c0.567,4.535-0.566,7.937-2.551,10.488c-1.418,1.417-3.401,0-3.401-0.567
		c-1.418-3.401-2.552-7.086-0.567-9.921C309.829,609.165,315.215,607.181,315.781,610.582L315.781,610.582z"/>
	<path fill="#4EAC3A" d="M425.484,612.282c1.417,3.402-1.984,3.969-2.552,5.953c-1.417,1.418-3.968,1.984-6.52,0.567
		c-1.417-0.567-1.417-3.401-0.566-4.536C417.546,611.716,424.066,607.181,425.484,612.282L425.484,612.282z"/>
	<path fill="#4EAC3A" d="M527.815,614.267c0.567,2.552-0.566,3.969-1.984,4.536c-3.401,1.417-5.102-0.567-6.52-1.984
		c-1.417-1.417,0.567-2.552,0.567-3.969C522.146,610.582,527.248,611.149,527.815,614.267L527.815,614.267z"/>
	<path fill="#4EAC3A" d="M270.711,634.677c0,1.984,0.566,3.401-0.567,3.969c-5.103,0.566-9.921,1.417-13.606-0.567
		c-0.566-2.551-0.566-5.953,1.984-6.52C264.191,630.142,266.742,632.692,270.711,634.677L270.711,634.677z"/>
	<path fill="#4EAC3A" d="M457.515,643.747c0.567,2.552,0.567,2.552-0.566,3.969c-1.418,1.984-3.969,3.402-6.521,1.984
		c-0.566-1.417-1.983-3.401-0.566-4.535C450.995,642.33,456.098,639.779,457.515,643.747L457.515,643.747z"/>
	<path fill="#4EAC3A" d="M259.656,686.268c0.567,1.984,0.567,5.953-1.984,7.087c-1.984,0.566-3.969,1.417-5.953-0.567
		c-1.983-2.551,0-5.103,1.418-7.087C254.27,681.732,258.805,684.283,259.656,686.268L259.656,686.268z"/>
	<path fill="#4EAC3A" d="M358.302,688.819c0.566,2.551-1.984,3.968-3.401,5.102c-3.402,1.418-4.536-1.984-7.087-3.401
		c-1.418-1.417-2.552-4.535,0-5.953C351.782,683.717,356.318,685.417,358.302,688.819L358.302,688.819z"/>
</g>
</svg>
