<?xml version="1.0" encoding="utf-8"?>
<!-- Generator: Adobe Illustrator 16.0.0, SVG Export Plug-In . SVG Version: 6.00 Build 0)  -->
<!DOCTYPE svg PUBLIC "-//W3C//DTD SVG 1.1//EN" "http://www.w3.org/Graphics/SVG/1.1/DTD/svg11.dtd">
<svg version="1.1" id="Calque_1" xmlns="http://www.w3.org/2000/svg" xmlns:xlink="http://www.w3.org/1999/xlink" x="0px" y="0px"
	 width="595.279px" height="595.28px" viewBox="0 246.61 595.279 595.28" enable-background="new 0 246.61 595.279 595.28"
	 xml:space="preserve">
<rect x="0" y="246.61" width="595.279" height="595.28"/>
<g>
	<path fill="#FFFFFF" d="M85.579,504.195v73.391h38.037v6.49H77.971v-79.881H85.579z"/>
	<path fill="#FFFFFF" d="M311.34,504.195c3.918,0,7.469,0.504,10.652,1.51c3.185,1.008,5.92,2.5,8.205,4.475
		c2.286,1.979,4.041,4.383,5.264,7.219c1.226,2.834,1.839,6.041,1.839,9.619c0,3.58-0.613,6.787-1.839,9.621
		c-1.223,2.838-2.978,5.244-5.264,7.219c-2.285,1.975-5.021,3.467-8.205,4.475c-3.184,1.004-6.734,1.51-10.652,1.51h-19.303v34.234
		h-8.327v-79.881H311.34z M309.503,543.352c5.794,0,10.487-1.342,14.082-4.027c3.59-2.686,5.389-6.787,5.389-12.307
		s-1.799-9.619-5.389-12.305c-3.595-2.686-8.288-4.027-14.082-4.027h-17.466v32.666H309.503z"/>
	<path fill="#FFFFFF" d="M189.158,520.883l-4.929,4.549c0.721,1.846,1.317,3.789,1.787,5.84c0.952,4.178,1.432,8.465,1.432,12.865
		c0,4.326-0.479,8.596-1.432,12.809c-0.955,4.215-2.435,7.982-4.434,11.299c-2.003,3.32-4.561,5.984-7.668,8
		c-3.11,2.016-6.854,3.02-11.224,3.02c-4.375,0-8.13-1.004-11.271-3.02c-3.14-2.016-5.714-4.68-7.711-8
		c-2.004-3.316-3.48-7.084-4.436-11.299c-0.958-4.213-1.434-8.482-1.434-12.809c0-4.4,0.476-8.688,1.434-12.865
		c0.955-4.178,2.432-7.926,4.436-11.244c1.997-3.316,4.571-5.986,7.711-8c3.142-2.012,6.896-3.02,11.271-3.02
		c4.369,0,8.113,1.008,11.224,3.02c0.238,0.154,0.451,0.338,0.682,0.5l4.816-4.443c-0.999-0.777-2.036-1.504-3.142-2.152
		c-3.881-2.275-8.409-3.414-13.58-3.414c-5.175,0-9.718,1.139-13.627,3.414c-3.911,2.273-7.158,5.332-9.745,9.172
		c-2.587,3.844-4.525,8.262-5.818,13.258c-1.294,4.998-1.941,10.256-1.941,15.775s0.647,10.777,1.941,15.773
		c1.293,4.998,3.231,9.398,5.818,13.201c2.587,3.805,5.834,6.844,9.745,9.117c3.909,2.275,8.452,3.414,13.627,3.414
		c5.171,0,9.699-1.139,13.58-3.414c3.878-2.273,7.112-5.312,9.699-9.117c2.586-3.803,4.525-8.203,5.819-13.201
		c1.293-4.996,1.938-10.254,1.938-15.773s-0.645-10.777-1.938-15.775C191.102,525.701,190.215,523.217,189.158,520.883z"/>
	<path fill="#FFFFFF" d="M262.506,521.854l-4.994,4.609c0.553,1.539,1.045,3.127,1.43,4.809c0.955,4.178,1.434,8.465,1.434,12.865
		c0,4.326-0.479,8.596-1.434,12.809c-0.955,4.215-2.434,7.982-4.434,11.299c-2.002,3.32-4.558,5.984-7.667,8
		c-3.112,2.016-6.853,3.02-11.226,3.02c-4.371,0-8.126-1.004-11.268-3.02s-5.714-4.68-7.713-8
		c-2.002-3.316-3.481-7.084-4.437-11.299c-0.955-4.213-1.432-8.482-1.432-12.809c0-4.4,0.477-8.688,1.432-12.865
		s2.435-7.926,4.437-11.244c1.999-3.316,4.571-5.986,7.713-8c3.142-2.012,6.896-3.02,11.268-3.02c4.373,0,8.113,1.008,11.226,3.02
		c0.524,0.338,1.009,0.725,1.503,1.102l4.766-4.398c-1.229-1.023-2.514-1.98-3.913-2.799c-3.881-2.275-8.406-3.414-13.581-3.414
		c-5.171,0-9.714,1.139-13.623,3.414c-3.913,2.273-7.161,5.332-9.745,9.172c-2.588,3.844-4.528,8.262-5.822,13.258
		c-1.293,4.998-1.938,10.256-1.938,15.775s0.645,10.777,1.938,15.773c1.294,4.998,3.234,9.398,5.822,13.201
		c2.584,3.805,5.832,6.844,9.745,9.117c3.909,2.275,8.452,3.414,13.623,3.414c5.175,0,9.7-1.139,13.581-3.414
		c3.881-2.273,7.112-5.312,9.699-9.117c2.587-3.803,4.526-8.203,5.818-13.201c1.294-4.996,1.941-10.254,1.941-15.773
		s-0.647-10.777-1.941-15.775C264.12,526.064,263.373,523.904,262.506,521.854z"/>
	<g>
		<path fill="#FFFFFF" d="M505.201,507.109l-6.61,6.1c6.149,8.797,9.768,19.494,9.768,31.041c0,29.967-24.294,54.26-54.26,54.26
			c-29.967,0-54.261-24.293-54.261-54.26c0-29.965,24.294-54.26,54.261-54.26c10.995,0,21.221,3.281,29.77,8.904l6.726-6.205
			c-10.317-7.324-22.906-11.648-36.495-11.648c-34.855,0-63.21,28.355-63.21,63.209s28.354,63.211,63.21,63.211
			c34.854,0,63.21-28.357,63.21-63.211C517.309,530.379,512.805,517.545,505.201,507.109z"/>
	</g>
</g>
</svg>
