<?xml version="1.0" encoding="utf-8"?>
<!-- Generator: Adobe Illustrator 16.0.0, SVG Export Plug-In . SVG Version: 6.00 Build 0)  -->
<!DOCTYPE svg PUBLIC "-//W3C//DTD SVG 1.1//EN" "http://www.w3.org/Graphics/SVG/1.1/DTD/svg11.dtd">
<svg version="1.1" id="Calque_1" xmlns="http://www.w3.org/2000/svg" xmlns:xlink="http://www.w3.org/1999/xlink" x="0px" y="0px"
	 width="595.279px" height="595.28px" viewBox="0 246.61 595.279 595.28" enable-background="new 0 246.61 595.279 595.28"
	 xml:space="preserve">
<rect x="0" y="246.61" width="595.279" height="595.28"/>
<g>
	<path fill="#F2F2F2" d="M317.199,454.996h10.062h28.205c21.118,0,38.268,17.149,38.268,38.269
		c0,21.118-17.149,37.559-38.268,37.559h-28.205h-10.062V454.996L317.199,454.996z M301.892,546.556h107.292V439.264H301.892
		V546.556z"/>
	<path fill="#F2F2F2" d="M355.609,517.501c13.89,0,25.087-10.771,25.087-24.52c0-13.891-11.197-24.805-25.087-24.805h-18.425h-6.662
		v49.324h6.662H355.609z"/>
	<path fill="#F2F2F2" d="M277.797,569.375v13.323h-62.93v17.858h49.466v13.465h-49.466v17.858h62.93v13.181h-76.11v-75.827
		L277.797,569.375z M186.096,660.935h107.292V553.643H186.096V660.935z"/>
	<path fill="#F2F2F2" d="M355.467,650.021c-23.669,0-42.804-19.134-42.804-42.804c0-23.669,19.135-42.804,42.804-42.804
		c23.67,0,42.804,19.135,42.804,42.804C398.271,630.888,379.137,650.021,355.467,650.021 M301.892,660.935h107.292V553.643H301.892
		V660.935z"/>
	<path fill="#F2F2F2" d="M355.467,579.297c-15.449,0-27.922,12.472-27.922,27.921s12.473,27.922,27.922,27.922
		s28.063-12.473,28.063-27.922C383.531,591.911,370.916,579.297,355.467,579.297"/>
	<path fill="#F2F2F2" d="M201.545,517.501h31.181v-49.324h-31.181v-13.322h76.11v13.322h-31.465v49.324h31.606v13.039h-76.252
		V517.501z M186.096,546.556h107.292V439.264H186.096V546.556z"/>
</g>
</svg>
